<svg xmlns="http://www.w3.org/2000/svg" width="21.019" height="20.09" viewBox="0 0 21.019 20.09">
  <defs>
    <style>
      .cls-1 {
        fill: none;
        stroke: #fff;
      }
    </style>
  </defs>
  <g id="star" transform="translate(-1.5 -1.955)">
    <g id="Group_373" data-name="Group 373">
      <path id="Path_865" data-name="Path 865" class="cls-1" d="M22,10.1A.937.937,0,0,0,21.2,9l-5.7-.8L12.9,3a.781.781,0,0,0-.4-.4,1.012,1.012,0,0,0-1.4.4L8.6,8.2,2.9,9a.6.6,0,0,0-.6.3.967.967,0,0,0,0,1.4l4.1,4-1,5.7a1.268,1.268,0,0,0,.1.6,1.012,1.012,0,0,0,1.4.4L12,18.7l5.1,2.7a.749.749,0,0,0,.5.1h.2a1.037,1.037,0,0,0,.8-1.2l-1-5.7,4.1-4a.55.55,0,0,0,.3-.5Z"/>
    </g>
  </g>
</svg>
