<svg xmlns="http://www.w3.org/2000/svg" width="114" height="114" viewBox="0 0 114 114">
  <defs>
    <style>
      .cls-1 {
        fill: #fff;
      }
    </style>
  </defs>
  <path id="BG_Icon" data-name="BG Icon" class="cls-1" d="M53.369,2.76a6,6,0,0,1,7.261,0L72.1,11.474a6,6,0,0,0,3.292,1.214l14.321.809a6,6,0,0,1,5.508,4.642l3.3,14.3a6,6,0,0,0,1.707,2.995L110.8,45.512a6,6,0,0,1,1.232,7.017l-6.56,13.178a6,6,0,0,0-.588,3.375L106.6,83.732a6,6,0,0,1-3.566,6.2L89.782,95.7a6,6,0,0,0-2.652,2.253L79.256,110.18a6,6,0,0,1-6.8,2.487l-13.691-4.2a6,6,0,0,0-3.521,0l-13.691,4.2a6,6,0,0,1-6.8-2.487L26.87,97.954A6,6,0,0,0,24.218,95.7L10.962,89.936a6,6,0,0,1-3.566-6.2L9.12,69.083a6,6,0,0,0-.588-3.375L1.973,52.53A6,6,0,0,1,3.2,45.512L13.777,35.437a6,6,0,0,0,1.707-2.995l3.3-14.3A6,6,0,0,1,24.292,13.5l14.321-.809A6,6,0,0,0,41.9,11.474Z"/>
</svg>
