<svg xmlns="http://www.w3.org/2000/svg" xmlns:xlink="http://www.w3.org/1999/xlink" width="17.778" height="16" viewBox="0 0 17.778 16">
  <defs>
    <style>
      .cls-1 {
        fill: url(#linear-gradient);
      }
    </style>
    <linearGradient id="linear-gradient" x1="0.5" x2="0.5" y2="1" gradientUnits="objectBoundingBox">
      <stop offset="0" stop-color="#fff"/>
      <stop offset="1" stop-color="#76767c"/>
    </linearGradient>
  </defs>
  <g id="Camera" transform="translate(-2 -3)">
    <g id="Group_6" data-name="Group 6" transform="translate(2 3)">
      <g id="Iconly_Bold_Camera" data-name="Iconly/Bold/Camera">
        <path id="Camera-2" data-name="Camera" class="cls-1" d="M10.978,0a2.172,2.172,0,0,1,1.973,1.252c.106.212.252.519.407.844l.187.393.091.193.089.2a.2.2,0,0,0,.178.107,3.882,3.882,0,0,1,3.876,3.87v5.275A3.883,3.883,0,0,1,13.9,16H3.876A3.876,3.876,0,0,1,0,12.13V6.853A3.876,3.876,0,0,1,3.876,2.982a.174.174,0,0,0,.169-.107L4.1,2.769c.249-.524.551-1.163.729-1.518A2.16,2.16,0,0,1,6.791,0ZM8.889,5.692a3.487,3.487,0,0,0-2.48,1.03A3.435,3.435,0,0,0,5.4,9.181,3.495,3.495,0,1,0,8.889,5.691Zm0,1.331a2.155,2.155,0,0,1,2.16,2.158,2.167,2.167,0,0,1-2.16,2.158,2.155,2.155,0,0,1-2.16-2.157V9.172a2.085,2.085,0,0,1,.622-1.51,2.151,2.151,0,0,1,1.538-.639Zm4.987-1.545a.8.8,0,0,0-.8.809.8.8,0,0,0,.8.8.8.8,0,1,0,0-1.607Z"/>
      </g>
    </g>
  </g>
</svg>
