<svg xmlns="http://www.w3.org/2000/svg" width="14" height="14.007" viewBox="0 0 14 14.007">
  <defs>
    <style>
      .cls-1 {
        fill: #ddb40a;
      }
    </style>
  </defs>
  <g id="audio-square" transform="translate(-2 -2)">
    <g id="Group_367" data-name="Group 367" transform="translate(2 2)">
      <path id="Path_855" data-name="Path 855" class="cls-1" d="M9.271,13.922a.935.935,0,1,0,.938.938.933.933,0,0,0-.938-.938Z" transform="translate(-3.9 -5.572)"/>
      <path id="Path_856" data-name="Path 856" class="cls-1" d="M11.938,2H6.069A3.738,3.738,0,0,0,2,6.069v5.862a3.74,3.74,0,0,0,4.069,4.076h5.862A3.738,3.738,0,0,0,16,11.938V6.069A3.729,3.729,0,0,0,11.938,2Zm.651,5.463a1.253,1.253,0,0,1-.49,1.03,1.176,1.176,0,0,1-.686.217,1.471,1.471,0,0,1-.448-.077L9.361,8.1a.053.053,0,0,1-.028-.014V11.28A1.961,1.961,0,1,1,7.372,9.319a2.011,2.011,0,0,1,.938.245V6.216a1.253,1.253,0,0,1,.49-1.03,1.238,1.238,0,0,1,1.135-.14l1.6.532A1.61,1.61,0,0,1,12.6,7.043v.42h-.007Z" transform="translate(-2 -2)"/>
    </g>
  </g>
</svg>
