<svg xmlns="http://www.w3.org/2000/svg" width="15.859" height="14.02" viewBox="0 0 15.859 14.02">
  <defs>
    <style>
      .cls-1 {
        fill: #fff;
        fill-rule: evenodd;
      }
    </style>
  </defs>
  <g id="Menu-1" transform="translate(-3.22 -4.25)">
    <g id="Group_360" data-name="Group 360" transform="translate(3.25 4.25)">
      <path id="Path_847" data-name="Path 847" class="cls-1" d="M9.25,11.26a.678.678,0,0,1,.678-.678H18.4a.678.678,0,1,1,0,1.357H9.928A.678.678,0,0,1,9.25,11.26ZM3.22,17.592a.678.678,0,0,1,.678-.678H18.4a.678.678,0,1,1,0,1.357H3.9A.678.678,0,0,1,3.22,17.592ZM6.365,4.928a.678.678,0,0,1,.678-.678H18.4a.678.678,0,1,1,0,1.357H7.044a.678.678,0,0,1-.678-.678Z" transform="translate(-3.25 -4.25)"/>
    </g>
  </g>
</svg>
