<svg xmlns="http://www.w3.org/2000/svg" width="18" height="20" viewBox="0 0 18 20">
  <defs>
    <style>
      .cls-1, .cls-2 {
        fill: #ddb40a;
      }

      .cls-1 {
        opacity: 0.4;
      }
    </style>
  </defs>
  <g id="Delete" transform="translate(-3 -2)">
    <g id="Group_384" data-name="Group 384">
      <g id="Iconly_Bulk_Delete" data-name="Iconly/Bulk/Delete">
        <g id="Delete-2" data-name="Delete" transform="translate(3 2)">
          <path id="Fill-1" class="cls-1" d="M16.643,7.488c0,.068-.533,6.81-.837,9.646a2.918,2.918,0,0,1-3,2.827C11.516,19.99,10.249,20,9,20c-1.323,0-2.616-.01-3.872-.039A2.917,2.917,0,0,1,2.2,17.134c-.313-2.847-.837-9.578-.846-9.646a.794.794,0,0,1,.19-.558A.71.71,0,0,1,2.069,6.7h13.87a.728.728,0,0,1,.523.234.747.747,0,0,1,.181.558"/>
          <path id="Fill-4" class="cls-2" d="M18,3.977a.722.722,0,0,0-.713-.733H14.371a1.281,1.281,0,0,1-1.24-1.017l-.164-.73a1.987,1.987,0,0,0-1.9-1.5H6.936A1.988,1.988,0,0,0,5.023,1.546l-.152.682A1.283,1.283,0,0,1,3.63,3.244H.714A.722.722,0,0,0,0,3.977v.38a.73.73,0,0,0,.714.733H17.287A.729.729,0,0,0,18,4.357v-.38Z"/>
        </g>
      </g>
    </g>
  </g>
</svg>
