<svg xmlns="http://www.w3.org/2000/svg" width="14.961" height="12.717" viewBox="0 0 14.961 12.717">
  <defs>
    <style>
      .cls-1 {
        fill: #fff;
      }
    </style>
  </defs>
  <g id="sms" transform="translate(-2 -3.5)">
    <g id="Group_396" data-name="Group 396" transform="translate(2 3.5)">
      <path id="Path_887" data-name="Path 887" class="cls-1" d="M13.221,3.5H5.74C3.5,3.5,2,4.622,2,7.24v5.236c0,2.618,1.5,3.74,3.74,3.74h7.481c2.244,0,3.74-1.122,3.74-3.74V7.24C16.961,4.622,15.465,3.5,13.221,3.5Zm.352,4.556-2.341,1.87a2.888,2.888,0,0,1-3.5,0L5.389,8.056a.576.576,0,0,1-.09-.793.559.559,0,0,1,.785-.09l2.341,1.87a1.785,1.785,0,0,0,2.1,0l2.341-1.87a.552.552,0,0,1,.785.09.567.567,0,0,1-.082.793Z" transform="translate(-2 -3.5)"/>
    </g>
  </g>
</svg>
