<svg xmlns="http://www.w3.org/2000/svg" width="16.951" height="15.992" viewBox="0 0 16.951 15.992">
  <defs>
    <style>
      .cls-1 {
        fill: #fff;
      }
    </style>
  </defs>
  <g id="setting-2" transform="translate(-2 -2.562)">
    <g id="Group_387" data-name="Group 387" transform="translate(2 2.562)">
      <path id="Path_873" data-name="Path 873" class="cls-1" d="M17.333,8.2c-1.533,0-2.16-1.084-1.4-2.414a1.607,1.607,0,0,0-.593-2.194l-1.466-.839a1.414,1.414,0,0,0-1.931.508l-.093.161c-.762,1.33-2.016,1.33-2.787,0l-.093-.161a1.39,1.39,0,0,0-1.915-.508l-1.466.839A1.617,1.617,0,0,0,5,5.8C5.77,7.119,5.143,8.2,3.61,8.2A1.614,1.614,0,0,0,2,9.813V11.3a1.614,1.614,0,0,0,1.61,1.61C5.143,12.913,5.77,14,5,15.328a1.607,1.607,0,0,0,.593,2.194l1.466.839a1.414,1.414,0,0,0,1.931-.508l.093-.161c.762-1.33,2.016-1.33,2.787,0l.093.161a1.414,1.414,0,0,0,1.931.508l1.466-.839a1.609,1.609,0,0,0,.593-2.194c-.771-1.33-.144-2.414,1.389-2.414a1.614,1.614,0,0,0,1.61-1.61V9.813A1.627,1.627,0,0,0,17.333,8.2Zm-6.862,5.108a2.753,2.753,0,1,1,2.753-2.753A2.759,2.759,0,0,1,10.471,13.311Z" transform="translate(-2 -2.562)"/>
    </g>
  </g>
</svg>
