<svg xmlns="http://www.w3.org/2000/svg" width="58.164" height="59.928" viewBox="0 0 58.164 59.928">
  <defs>
    <style>
      .cls-1 {
        fill: none;
        stroke: #ddb40a;
        stroke-linecap: round;
        stroke-linejoin: round;
        stroke-width: 4px;
      }
    </style>
  </defs>
  <g id="headset-alt" transform="translate(-5.529 -4)">
    <g id="Group_381" data-name="Group 381" transform="translate(7.548 6)">
      <g id="Group_380" data-name="Group 380">
        <path id="primary" class="cls-1" d="M8,33.16V29.87A9.87,9.87,0,0,1,17.87,20h3.29a3.29,3.29,0,0,1,3.29,3.29V39.739a3.29,3.29,0,0,1-3.29,3.29H17.87A9.87,9.87,0,0,1,8,33.16Zm52.638,0V29.87A9.87,9.87,0,0,0,50.769,20h-3.29a3.29,3.29,0,0,0-3.29,3.29V39.739a3.29,3.29,0,0,0,3.29,3.29h3.29a9.87,9.87,0,0,0,9.87-9.87Z" transform="translate(-7.256 3.029)"/>
        <path id="primary-2" data-name="primary" class="cls-1" d="M8.292,42.189l-.625-6.58a27.063,27.063,0,1,1,53.888,0l-.625,6.58" transform="translate(-7.548 -6)"/>
        <path id="primary-3" data-name="primary" class="cls-1" d="M40.449,34v3.29a6.218,6.218,0,0,1-5.757,6.58H24" transform="translate(3.063 12.058)"/>
      </g>
    </g>
  </g>
</svg>
