<svg xmlns="http://www.w3.org/2000/svg" width="17.52" height="20" viewBox="0 0 17.52 20">
  <defs>
    <style>
      .cls-1 {
        fill: #fff;
      }
    </style>
  </defs>
  <g id="logout-1" transform="translate(-3.238 -2)">
    <g id="Group_391" data-name="Group 391">
      <path id="Path_883" data-name="Path 883" class="cls-1" d="M7.878,12.07a.755.755,0,0,1,.75-.75h5.48V2.86a.869.869,0,0,0-.87-.86,9.565,9.565,0,0,0-10,10,9.565,9.565,0,0,0,10,10,.86.86,0,0,0,.86-.86V12.81H8.628a.734.734,0,0,1-.75-.74Z"/>
      <path id="Path_884" data-name="Path 884" class="cls-1" d="M20.542,11.54,17.7,8.69a.75.75,0,0,0-1.06,1.06l1.56,1.56H14.1v1.5h4.09l-1.56,1.56a.754.754,0,0,0,0,1.06.748.748,0,0,0,1.06,0l2.84-2.85a.722.722,0,0,0,.01-1.04Z"/>
    </g>
  </g>
</svg>
