<svg xmlns="http://www.w3.org/2000/svg" width="21.692" height="10.846" viewBox="0 0 21.692 10.846">
  <defs>
    <style>
      .cls-1 {
        fill: #fff;
      }
    </style>
  </defs>
  <path id="Icon_awesome-language" data-name="Icon awesome-language" class="cls-1" d="M5.155,11.5c-.119-.41-.264-1.125-.264-1.125H4.874s-.146.715-.264,1.125l-.376,1.271H5.525ZM20.878,6.75h-9.49V17.6h9.49a.811.811,0,0,0,.813-.813V7.563A.811.811,0,0,0,20.878,6.75Zm-.813,4.067a.408.408,0,0,1-.407.407h-.386a6.073,6.073,0,0,1-1.447,2.369,10.507,10.507,0,0,0,.885.61.408.408,0,0,1,.139.549l-.268.471a.408.408,0,0,1-.566.146,11.793,11.793,0,0,1-1.2-.844,11.952,11.952,0,0,1-1.2.844.408.408,0,0,1-.566-.146l-.268-.471a.406.406,0,0,1,.142-.549,9.669,9.669,0,0,0,.885-.61,7.865,7.865,0,0,1-.712-.871.405.405,0,0,1,.125-.58l.22-.132.247-.146a.41.41,0,0,1,.542.115,6.463,6.463,0,0,0,.59.708,5.184,5.184,0,0,0,1.017-1.464H13.964a.408.408,0,0,1-.407-.407v-.542a.408.408,0,0,1,.407-.407h2.169V9.326a.408.408,0,0,1,.407-.407h.542a.408.408,0,0,1,.407.407v.542h2.169a.408.408,0,0,1,.407.407ZM0,7.563v9.219a.811.811,0,0,0,.813.813H10.3V6.75H.813A.811.811,0,0,0,0,7.563Zm2,7.324L3.945,9.156a.405.405,0,0,1,.386-.275h1.1a.413.413,0,0,1,.386.275l1.949,5.731a.408.408,0,0,1-.386.539H6.606a.407.407,0,0,1-.39-.291L5.9,14.054H3.857l-.308,1.078a.41.41,0,0,1-.39.295H2.383A.409.409,0,0,1,2,14.888Z" transform="translate(0 -6.75)"/>
</svg>
