<svg xmlns="http://www.w3.org/2000/svg" width="20" height="18" viewBox="0 0 20 18">
  <defs>
    <style>
      .cls-1 {
        fill: #fff;
      }
    </style>
  </defs>
  <g id="Message" transform="translate(-2 -3)">
    <g id="Group_378" data-name="Group 378">
      <g id="Iconly_Broken_Message" data-name="Iconly/Broken/Message">
        <path id="Message-2" data-name="Message" class="cls-1" d="M14.2,0A5.842,5.842,0,0,1,20,5.846v1.46l-.006.1a.71.71,0,0,1-.7.616L19.284,8l-.112-.009a.716.716,0,0,1-.6-.7V5.846A4.439,4.439,0,0,0,14.2,1.435H5.8a4.44,4.44,0,0,0-4.379,4.41v6.31A4.439,4.439,0,0,0,5.8,16.565H14.2a4.44,4.44,0,0,0,4.379-4.41.716.716,0,0,1,1.424,0A5.842,5.842,0,0,1,14.2,18H5.8A5.834,5.834,0,0,1,0,12.154V5.846A5.824,5.824,0,0,1,5.8,0Zm-9.9,5.387a.7.7,0,0,1,.518.156L8.969,8.857a1.427,1.427,0,0,0,1.77,0l4.113-3.314h.009l.086-.06a.711.711,0,0,1,.8,1.173L11.632,9.98a2.84,2.84,0,0,1-3.582,0L3.927,6.656l-.076-.072a.726.726,0,0,1-.03-.934.7.7,0,0,1,.473-.263Z" transform="translate(2 3)"/>
      </g>
    </g>
  </g>
</svg>
