<svg xmlns="http://www.w3.org/2000/svg" width="13.537" height="15.77" viewBox="0 0 13.537 15.77">
  <defs>
    <style>
      .cls-1 {
        fill: #fff;
      }
    </style>
  </defs>
  <g id="notification-bing" transform="translate(-3.44 -2.05)">
    <g id="Group_395" data-name="Group 395" transform="translate(3.44 2.05)">
      <path id="Path_885" data-name="Path 885" class="cls-1" d="M16.681,11.544l-.893-1.486a3.127,3.127,0,0,1-.372-1.328V7.251a5.2,5.2,0,1,0-10.395,0v1.47a3.235,3.235,0,0,1-.364,1.328l-.893,1.486a2.019,2.019,0,0,0,1.122,3.043,17.488,17.488,0,0,0,2.593.64c.087.016.174.024.261.04l.348.047c.206.032.411.055.624.071a15.957,15.957,0,0,0,3,0c.182-.016.364-.032.538-.055.142-.016.285-.032.427-.055.087-.008.174-.024.261-.04a16.649,16.649,0,0,0,2.617-.648,2.1,2.1,0,0,0,1.3-1.249,2.063,2.063,0,0,0-.166-1.786ZM10.8,8.334a.6.6,0,1,1-1.2,0V5.884a.6.6,0,1,1,1.2,0Z" transform="translate(-3.44 -2.05)"/>
      <path id="Path_886" data-name="Path 886" class="cls-1" d="M13.646,20.008a2.383,2.383,0,0,1-2.237,1.573,2.344,2.344,0,0,1-1.676-.7A2.183,2.183,0,0,1,9.18,20c.1.016.206.024.316.04.182.024.372.047.561.063.451.04.909.063,1.368.063s.9-.024,1.344-.063c.166-.016.332-.024.49-.047Z" transform="translate(-4.643 -5.811)"/>
    </g>
  </g>
</svg>
