<svg xmlns="http://www.w3.org/2000/svg" width="14.367" height="14.36" viewBox="0 0 14.367 14.36">
  <defs>
    <style>
      .cls-1 {
        fill: #fff;
      }
    </style>
  </defs>
  <g id="key" transform="translate(-1.996 -2.008)">
    <g id="Group_399" data-name="Group 399" transform="translate(1.996 2.007)">
      <path id="Path_891" data-name="Path 891" class="cls-1" d="M14.774,3.6A5.441,5.441,0,0,0,5.733,9.054L2.357,12.43a1.447,1.447,0,0,0-.352,1.07l.215,1.566A1.356,1.356,0,0,0,3.3,16.142l1.566.215A1.4,1.4,0,0,0,5.934,16l.589-.589a.356.356,0,0,0,0-.51L5.129,13.507a.538.538,0,0,1,.761-.761l1.4,1.4a.36.36,0,0,0,.5,0l1.522-1.515A5.435,5.435,0,0,0,14.774,3.6Zm-3.8,5.587a1.8,1.8,0,1,1,1.8-1.8,1.8,1.8,0,0,1-1.8,1.8Z" transform="translate(-1.996 -2.007)"/>
    </g>
  </g>
</svg>
