<svg xmlns="http://www.w3.org/2000/svg" width="20.001" height="20" viewBox="0 0 20.001 20">
  <defs>
    <style>
      .cls-1 {
        fill: #fff;
      }
    </style>
  </defs>
  <g id="Call" transform="translate(-2 -2)">
    <g id="Group_379" data-name="Group 379">
      <g id="Iconly_Broken_Call" data-name="Iconly/Broken/Call">
        <path id="Call-2" data-name="Call" class="cls-1" d="M2.306,8.585a.753.753,0,0,1,1.043.193c2.6,3.767,7.336,8.008,10.352,9.261,1.22.567,2.128.6,2.8.117.527-.319,2.024-1.806,2-2.58a1,1,0,0,0-.29-.443,18.071,18.071,0,0,0-2.913-2.2c-.32-.068-.651.126-1.157.444l-.256.16a.75.75,0,0,1-.774-1.285l.23-.143a3.063,3.063,0,0,1,2.306-.633,15.593,15.593,0,0,1,3.636,2.611,2.3,2.3,0,0,1,.715,1.4c.065,1.842-2.4,3.767-2.685,3.93a3.148,3.148,0,0,1-1.88.583,5.59,5.59,0,0,1-2.338-.59c-3.266-1.355-8.2-5.75-10.982-9.783a.75.75,0,0,1,.192-1.042ZM4.3,0l.176,0A2.311,2.311,0,0,1,5.91.717,15.6,15.6,0,0,1,8.524,4.352a2.654,2.654,0,0,1-.467,1.929c-.265.46-.357.657-.266.906a8.891,8.891,0,0,0,3.064,3.945.75.75,0,1,1-.873,1.22A10.412,10.412,0,0,1,6.39,7.727a2.426,2.426,0,0,1,.367-2.193c.226-.392.35-.626.3-.876A19.025,19.025,0,0,0,4.862,1.793a.9.9,0,0,0-.48-.294C3.666,1.482,2.2,2.9,1.87,3.448c-.515.708-.479,1.614.074,2.829A.75.75,0,0,1,.579,6.9C-.208,5.171-.193,3.73.623,2.617.927,2.11,2.838-.1,4.48,0Z" transform="translate(2 2)"/>
      </g>
    </g>
  </g>
</svg>
