<svg xmlns="http://www.w3.org/2000/svg" width="16.485" height="18.353" viewBox="0 0 16.485 18.353">
  <defs>
    <style>
      .cls-1 {
        fill: none;
        stroke: #fff;
        stroke-linecap: round;
        stroke-miterlimit: 10;
        stroke-width: 1.5px;
      }
    </style>
  </defs>
  <g id="Person" transform="translate(-133.248 -768.25)">
    <path id="Path_892" data-name="Path 892" class="cls-1" d="M8.8,8.028A2.51,2.51,0,1,0,6.24,5.519,2.532,2.532,0,0,0,8.8,8.028Z" transform="translate(129.857 765.999)"/>
    <path id="Path_893" data-name="Path 893" class="cls-1" d="M5.8,17.525,4.524,16.9a.994.994,0,0,1-.421-.412.959.959,0,0,1-.094-.58l.506-2.968a2.329,2.329,0,0,1,.815-1.4,2.412,2.412,0,0,1,1.535-.552h3.6A2.412,2.412,0,0,1,12,11.542a2.316,2.316,0,0,1,.805,1.4l.506,2.968a.833.833,0,0,1-.075.58.859.859,0,0,1-.431.4l-1.264.627" transform="translate(130 765.491)"/>
    <path id="Path_894" data-name="Path 894" class="cls-1" d="M6.42,15.97l.393,3.82a.929.929,0,0,0,.9.889H9.791a.937.937,0,0,0,.627-.272.9.9,0,0,0,.272-.618l.384-3.82" transform="translate(129.846 765.174)"/>
    <path id="Path_895" data-name="Path 895" class="cls-1" d="M15.04,3a2.558,2.558,0,0,1,1.807.74,2.487,2.487,0,0,1,0,3.558,2.581,2.581,0,0,1-1.807.74" transform="translate(129.296 766)"/>
    <path id="Path_896" data-name="Path 896" class="cls-1" d="M16.05,10.98h.833a2.412,2.412,0,0,1,1.535.552,2.329,2.329,0,0,1,.815,1.4l.506,2.968a.959.959,0,0,1-.094.58.994.994,0,0,1-.421.412l-1.273.627" transform="translate(129.232 765.492)"/>
    <path id="Path_897" data-name="Path 897" class="cls-1" d="M15.04,20.63h1.03a.916.916,0,0,0,.356-.056.884.884,0,0,0,.309-.187.911.911,0,0,0,.206-.29.886.886,0,0,0,.075-.346l.393-3.82" transform="translate(129.296 765.176)"/>
  </g>
</svg>
