<svg xmlns="http://www.w3.org/2000/svg" width="19.076" height="19.076" viewBox="0 0 19.076 19.076">
  <defs>
    <style>
      .cls-1 {
        fill: #ddb40a;
      }
    </style>
  </defs>
  <g id="Icon_ionic-ios-chatbubbles" data-name="Icon ionic-ios-chatbubbles" transform="translate(0)">
    <path id="Path_867" data-name="Path 867" class="cls-1" d="M22.608,15.875a1.111,1.111,0,0,1,.151-.559,1.543,1.543,0,0,1,.1-.142,7.43,7.43,0,0,0,1.266-4.141,7.8,7.8,0,0,0-7.965-7.658A7.91,7.91,0,0,0,8.347,9.469a7.369,7.369,0,0,0-.17,1.568,7.779,7.779,0,0,0,7.841,7.754,9.444,9.444,0,0,0,2.164-.353c.518-.142,1.032-.33,1.165-.381a1.212,1.212,0,0,1,.426-.078,1.192,1.192,0,0,1,.463.092l2.6.922a.62.62,0,0,0,.179.046.365.365,0,0,0,.367-.367.589.589,0,0,0-.023-.124Z" transform="translate(-5.045 -3.375)"/>
    <path id="Path_868" data-name="Path 868" class="cls-1" d="M15.779,22.486c-.165.046-.376.1-.605.147a8.463,8.463,0,0,1-1.559.206,7.779,7.779,0,0,1-7.841-7.754,8.67,8.67,0,0,1,.069-.981c.028-.2.06-.394.105-.587s.1-.413.16-.614l-.367.326a6.824,6.824,0,0,0-2.366,5.131,6.748,6.748,0,0,0,1.137,3.76c.105.16.165.284.147.367s-.546,2.843-.546,2.843a.368.368,0,0,0,.124.353.374.374,0,0,0,.234.083.329.329,0,0,0,.133-.028l2.573-1.013a.717.717,0,0,1,.55.009,7.718,7.718,0,0,0,2.783.55,7.2,7.2,0,0,0,5.507-2.527s.147-.2.316-.44C16.164,22.376,15.972,22.436,15.779,22.486Z" transform="translate(-3.375 -6.689)"/>
  </g>
</svg>
