<svg width="28" height="28" viewBox="0 0 28 28" fill="none" xmlns="http://www.w3.org/2000/svg">
<path d="M1.49128 12.5064C1.49128 12.5064 12.2494 7.73527 15.9804 6.05525C17.4107 5.3833 22.2612 3.23287 22.2612 3.23287C22.2612 3.23287 24.4999 2.29214 24.3133 4.57687C24.2511 5.51769 23.7536 8.81039 23.2561 12.372C22.5099 17.4119 21.7015 22.9222 21.7015 22.9222C21.7015 22.9222 21.5771 24.4678 20.52 24.7366C19.4629 25.0054 17.7216 23.7959 17.4107 23.527C17.1619 23.3255 12.7468 20.3015 11.13 18.8231C10.6947 18.4199 10.1972 17.6136 11.1921 16.6727C13.4308 14.4552 16.1048 11.7 17.7216 9.95285C18.4679 9.14641 19.214 7.26486 16.1048 9.54958C11.6897 12.8424 7.3367 15.9335 7.3367 15.9335C7.3367 15.9335 6.34171 16.6055 4.47617 16.0007C2.61055 15.396 0.434066 14.5895 0.434066 14.5895C0.434066 14.5895 -1.05829 13.5816 1.49128 12.5064Z" fill="#DDB40A"/>
</svg>
