<svg xmlns="http://www.w3.org/2000/svg" width="14.676" height="14.676" viewBox="0 0 14.676 14.676">
  <defs>
    <style>
      .cls-1 {
        fill: #ef4982;
      }
    </style>
  </defs>
  <g id="Time-Circle" transform="translate(-2 -2)">
    <g id="Group_383" data-name="Group 383" transform="translate(2 2)">
      <g id="Iconly_Broken_Time-Circle" data-name="Iconly/Broken/Time-Circle" transform="translate(0 0)">
        <path id="Time-Circle-2" data-name="Time-Circle" class="cls-1" d="M7.338,0A7.338,7.338,0,1,1,1.521,11.813a.534.534,0,1,1,.845-.652,6.272,6.272,0,1,0-1.3-3.823,6.325,6.325,0,0,0,.071.953.534.534,0,0,1-1.054.161A7.343,7.343,0,0,1,7.338,0ZM7.089,3.75a.533.533,0,0,1,.533.533V7.546l2.513,1.5a.534.534,0,0,1-.546.917L6.816,8.307a.536.536,0,0,1-.26-.459V4.283a.534.534,0,0,1,.533-.534Z" transform="translate(0 0)"/>
      </g>
    </g>
  </g>
</svg>
