<svg xmlns="http://www.w3.org/2000/svg" width="15.757" height="16.252" viewBox="0 0 15.757 16.252">
  <defs>
    <style>
      .cls-1 {
        fill: #fff;
      }
    </style>
  </defs>
  <g id="moon" transform="translate(-2.305 -2.001)">
    <g id="Group_398" data-name="Group 398" transform="translate(2.305 2.001)">
      <path id="Path_890" data-name="Path 890" class="cls-1" d="M17.934,13.325c-.13-.22-.5-.561-1.407-.4a6.811,6.811,0,0,1-6.333-2.187A6.56,6.56,0,0,1,9.024,3.7c.358-.821.106-1.252-.073-1.431s-.626-.447-1.488-.089a8.388,8.388,0,0,0-5.138,8.3,8.517,8.517,0,0,0,5.724,7.309,8.13,8.13,0,0,0,2.35.447c.13.008.26.016.39.016a8.538,8.538,0,0,0,6.886-3.472c.545-.756.4-1.236.26-1.455Z" transform="translate(-2.305 -2.001)"/>
    </g>
  </g>
</svg>
