<svg xmlns="http://www.w3.org/2000/svg" width="16.951" height="16.951" viewBox="0 0 16.951 16.951">
  <defs>
    <style>
      .cls-1 {
        fill: #fff;
      }
    </style>
  </defs>
  <g id="profile-circle" transform="translate(-2 -2)">
    <g id="Group_390" data-name="Group 390" transform="translate(2 2)">
      <path id="Path_881" data-name="Path 881" class="cls-1" d="M18.951,10.476A8.476,8.476,0,1,0,4.738,16.7c0,.008,0,.008-.008.017.085.085.186.153.271.229a1.776,1.776,0,0,0,.144.119c.153.127.322.246.483.364l.17.119a5.045,5.045,0,0,0,.509.305c.059.034.127.076.186.11a5.164,5.164,0,0,0,.534.254,2.168,2.168,0,0,0,.2.093q.28.114.559.2a1.907,1.907,0,0,0,.2.068c.2.059.407.11.61.161a1.2,1.2,0,0,0,.186.042,6.708,6.708,0,0,0,.72.11.425.425,0,0,1,.1.017c.288.025.576.042.865.042s.576-.017.856-.042a.425.425,0,0,0,.1-.017,6.708,6.708,0,0,0,.72-.11c.059-.008.119-.034.186-.042.2-.051.415-.093.61-.161a1.907,1.907,0,0,1,.2-.068c.186-.068.381-.127.559-.2a2.168,2.168,0,0,0,.2-.093q.267-.114.534-.254c.068-.034.127-.076.186-.11.17-.1.339-.195.509-.305a2.057,2.057,0,0,0,.17-.119c.17-.119.331-.237.483-.364a1.775,1.775,0,0,1,.144-.119c.093-.076.186-.153.271-.229,0-.008,0-.008-.008-.017A8.43,8.43,0,0,0,18.951,10.476Zm-4.289,4.212a8.155,8.155,0,0,0-8.374,0,4.093,4.093,0,0,0-.932.848,7.2,7.2,0,1,1,10.239,0A3.922,3.922,0,0,0,14.663,14.688Z" transform="translate(-2 -2)"/>
      <path id="Path_882" data-name="Path 882" class="cls-1" d="M11.428,6.93a3.174,3.174,0,0,0-.042,6.348h.153a3.175,3.175,0,0,0-.11-6.348Z" transform="translate(-2.953 -2.752)"/>
    </g>
  </g>
</svg>
