<svg xmlns="http://www.w3.org/2000/svg" width="22.829" height="22.893" viewBox="0 0 22.829 22.893">
  <defs>
    <style>
      .cls-1, .cls-2 {
        fill: none;
        stroke: #5b6472;
        stroke-linecap: round;
        stroke-linejoin: round;
      }

      .cls-1 {
        stroke-miterlimit: 10;
        stroke-width: 1.5px;
      }

      .cls-2 {
        stroke-width: 2px;
      }
    </style>
  </defs>
  <g id="message" transform="translate(-1.25 -1.25)">
    <g id="Group_365" data-name="Group 365" transform="translate(2 2)">
      <path id="Path_851" data-name="Path 851" class="cls-1" d="M2,8.4Q2,2,8.4,2h8.532q6.4,0,6.4,6.4v5.332q0,6.4-6.4,6.4H16.4a1.081,1.081,0,0,0-.853.427l-1.6,2.133a1.515,1.515,0,0,1-2.56,0l-1.6-2.133a1.205,1.205,0,0,0-.853-.427H8.4c-4.266,0-6.4-1.066-6.4-6.4V12.665" transform="translate(-2 -2)"/>
      <path id="Path_852" data-name="Path 852" class="cls-2" d="M16,11h.011" transform="translate(-1.07 -1.402)"/>
      <path id="Path_853" data-name="Path 853" class="cls-2" d="M11.995,11H12" transform="translate(-1.336 -1.402)"/>
      <path id="Path_854" data-name="Path 854" class="cls-2" d="M7.995,11H8" transform="translate(-1.601 -1.402)"/>
    </g>
  </g>
</svg>
