<svg xmlns="http://www.w3.org/2000/svg" width="17.455" height="13.964" viewBox="0 0 17.455 13.964">
  <defs>
    <style>
      .cls-1 {
        fill: #7e8289;
      }
    </style>
  </defs>
  <path id="Icon_awesome-eye-slash" data-name="Icon awesome-eye-slash" class="cls-1" d="M8.727,10.909a3.913,3.913,0,0,1-3.9-3.63L1.969,5.068a9.09,9.09,0,0,0-1,1.516.882.882,0,0,0,0,.8,8.748,8.748,0,0,0,7.76,4.838,8.472,8.472,0,0,0,2.124-.285l-1.415-1.1a3.931,3.931,0,0,1-.709.071Zm8.559,1.585-3.015-2.33A9.034,9.034,0,0,0,16.487,7.38a.882.882,0,0,0,0-.8,8.748,8.748,0,0,0-7.76-4.838A8.4,8.4,0,0,0,4.71,2.774L1.24.092A.436.436,0,0,0,.627.168L.092.858a.436.436,0,0,0,.077.612l16.046,12.4a.436.436,0,0,0,.613-.077l.536-.689A.436.436,0,0,0,17.286,12.494ZM12.276,8.621,11.2,7.792A2.584,2.584,0,0,0,8.037,4.467a1.3,1.3,0,0,1,.254.769,1.272,1.272,0,0,1-.042.273L6.242,3.957a3.881,3.881,0,0,1,2.486-.9,3.925,3.925,0,0,1,3.927,3.927,3.834,3.834,0,0,1-.379,1.639Z" transform="translate(0 0)"/>
</svg>
