<svg width="52" height="50" viewBox="0 0 52 50" fill="none" xmlns="http://www.w3.org/2000/svg">
<g opacity="0.7">
<path d="M14.7954 13.6068H14.1009C12.7836 13.6068 11.7158 14.6678 11.7158 15.9766V39.6875C11.7158 40.9963 12.7836 42.0573 14.1009 42.0573H14.7954C16.1127 42.0573 17.1805 40.9963 17.1805 39.6875V15.9766C17.1805 14.6678 16.1127 13.6068 14.7954 13.6068Z" fill="#BEAF90"/>
<path d="M28.6341 28.3072V27.6172C28.6341 26.3084 27.5662 25.2474 26.249 25.2474H2.38508C1.06783 25.2474 0 26.3084 0 27.6172V28.3072C0 29.6161 1.06783 30.6771 2.38508 30.6771H26.249C27.5662 30.6771 28.6341 29.6161 28.6341 28.3072Z" fill="#BEAF90"/>
<path d="M51.2007 45.0391V46.7058C51.1972 47.4403 50.9021 48.1437 50.3793 48.6631C49.8566 49.1824 49.1486 49.4758 48.4093 49.4792H32.2118C31.4703 49.4792 30.7589 49.1874 30.2333 48.6677C29.7078 48.1479 29.4108 47.4425 29.4074 46.7058V45.0391C29.4108 44.3023 29.7078 43.5969 30.2333 43.0772C30.7589 42.5574 31.4703 42.2656 32.2118 42.2657H35.9467V10.6901L31.7138 14.4792C31.1086 15.0378 30.3051 15.335 29.4797 15.3057C28.6542 15.2764 27.8741 14.923 27.3106 14.3229C26.7873 13.7598 26.5012 13.0189 26.5111 12.2526C26.5006 11.811 26.5852 11.3723 26.7592 10.9658C26.9333 10.5593 27.1928 10.1945 27.5203 9.89583L36.3922 1.94011C38.0041 0.625003 38.2662 0 39.6685 0H40.979C41.9637 0.00344541 42.907 0.394567 43.6021 1.08769C44.2973 1.78081 44.6876 2.71942 44.6876 3.69792V42.2657H48.4356C49.1702 42.2758 49.8715 42.5722 50.3887 43.0908C50.9058 43.6094 51.1973 44.309 51.2007 45.0391Z" fill="#BEAF90"/>
</g>
</svg>
