<svg width="40" height="40" viewBox="0 0 40 40" fill="none" xmlns="http://www.w3.org/2000/svg">
<path fill-rule="evenodd" clip-rule="evenodd" d="M22.4196 36.2879C25.741 32.9017 34.0171 24.4823 37.6613 20.7852C38.0592 20.3371 38.1807 19.7662 37.935 19.2078C37.6676 18.6001 37.0973 18.5164 36.5003 18.4914C25.1436 18.489 14.937 18.524 4.31257 18.503C3.19886 18.4973 1.38906 18.1837 1.40947 19.8317C1.4296 21.4582 3.68312 21.1021 4.39753 21.1138C13.5257 21.1156 22.9649 21.1566 32.2827 21.1092C32.5242 21.0997 33.8333 20.94 33.3546 21.4942C28.051 26.8506 25.826 29.1174 21.6051 33.4137C20.7705 34.2702 19.763 34.8779 20.1624 36.0473C20.4819 36.9828 21.7156 36.8113 22.4196 36.2879ZM31.8457 15.8552C32.7578 15.6997 33.2289 14.6366 32.7197 13.8646C29.5319 10.5778 26.2925 7.33632 23.1111 4.04408C22.5643 3.47814 22.0071 2.64837 21.1114 2.79928C20.2084 2.95145 19.7586 4.05056 20.2718 4.80944C23.0317 7.68408 27.7205 12.4281 29.8824 14.6283C30.4323 15.1919 30.9705 16.0044 31.8457 15.8552Z" fill="#BEAF90"/>
</svg>
