<svg width="6" height="6" viewBox="0 0 6 6" fill="none" xmlns="http://www.w3.org/2000/svg">
<path fill-rule="evenodd" clip-rule="evenodd" d="M5.86761 1.90572C5.8438 1.73279 5.65455 1.62521 5.46274 1.67982C5.35945 1.70922 5.17173 1.89225 5.08611 1.96613L3.31019 3.49303C3.25127 3.54377 3.1857 3.59386 3.13203 3.64779C2.96289 3.81778 2.95761 3.70965 2.7696 3.55928C2.70925 3.51101 2.64919 3.45567 2.59046 3.40517C2.00266 2.89979 1.40446 2.37725 0.814331 1.87844C0.683099 1.76751 0.582192 1.63262 0.37029 1.67334C0.175278 1.7108 0.0719837 1.89826 0.159155 2.05268C0.211587 2.14556 0.730487 2.56762 0.852867 2.67284L2.62897 4.1996C2.76398 4.31586 2.87422 4.44773 3.0933 4.39323C3.2007 4.36651 3.3851 4.18323 3.47204 4.10822C3.58965 4.00674 3.70769 3.9056 3.82551 3.8043C4.41255 3.29957 5.02126 2.78447 5.60144 2.27738C5.72653 2.16805 5.89152 2.07934 5.86761 1.90572V1.90572Z" fill="#BEAF90"/>
</svg>
