<svg width="65" height="64" viewBox="0 0 65 64" fill="none" xmlns="http://www.w3.org/2000/svg">
<path fill-rule="evenodd" clip-rule="evenodd" d="M50.3876 44.7912C50.2944 38.6749 50.0787 23.4516 49.9932 16.7576C49.9431 15.9861 49.5298 15.3525 48.795 15.0633C47.9955 14.7486 47.4017 15.189 46.8374 15.7073C36.5382 26.0021 27.316 35.2884 17.6638 44.9023C16.6487 45.9068 14.7202 47.2602 16.2497 48.7527C17.7593 50.2257 19.476 47.856 20.1346 47.219C28.4126 38.9442 37.0086 30.4234 45.4135 21.9315C45.6238 21.7039 46.6643 20.3704 46.7384 21.3127C46.8408 31.0325 46.9017 35.1282 47.0138 42.8944C47.0425 44.4364 46.686 45.9071 48.1204 46.6171C49.2678 47.1851 50.2292 45.9093 50.3876 44.7912V44.7912ZM40.2001 17.5106C40.8845 16.5409 40.3369 15.1391 39.1674 14.893C33.2636 14.7698 27.3544 14.7349 21.4513 14.6009C20.4366 14.5778 19.1707 14.3222 18.4969 15.2727C17.8176 16.231 18.4176 17.6465 19.5787 17.877C24.7167 18.0103 33.3176 18.1086 37.2951 18.1657C38.3104 18.1839 39.5434 18.4409 40.2001 17.5106Z" fill="#BEAF90"/>
</svg>
