<svg width="18" height="20" viewBox="0 0 18 20" fill="none" xmlns="http://www.w3.org/2000/svg">
<g clip-path="url(#clip0_1_2484)">
<path fill-rule="evenodd" clip-rule="evenodd" d="M4.61919 0.44121C3.94875 0.52059 3.53169 1.15141 3.74339 1.79078C3.85738 2.13507 4.56698 2.76081 4.85341 3.0462L10.7731 8.96594C10.9698 9.16235 11.164 9.38092 11.3731 9.5598C12.0321 10.1236 11.6129 10.1412 11.0299 10.7679C10.8428 10.9691 10.6282 11.1693 10.4325 11.3651C8.47312 13.3244 6.44727 15.3184 4.51342 17.2855C4.08337 17.7229 3.56042 18.0593 3.71826 18.7656C3.86351 19.4157 4.59028 19.76 5.18894 19.4694C5.54903 19.2946 7.18533 17.565 7.59325 17.157L13.5124 11.2367C13.9631 10.7867 14.4744 10.4192 14.2631 9.68893C14.1595 9.33091 13.4489 8.71624 13.1581 8.42646C12.7647 8.03443 12.3726 7.64095 11.9798 7.24821C10.023 5.29142 8.02603 3.26239 6.0601 1.32845C5.63624 0.911486 5.29232 0.361515 4.61919 0.44121Z" fill="#BEAF90"/>
</g>
<defs>
<clipPath id="clip0_1_2484">
<rect width="20" height="18" fill="white" transform="translate(0 20) rotate(-90)"/>
</clipPath>
</defs>
</svg>
