<svg width="50" height="50" viewBox="0 0 50 50" fill="none" xmlns="http://www.w3.org/2000/svg">
<path fill-rule="evenodd" clip-rule="evenodd" d="M45.6664 21.6366C41.4335 17.4848 30.9093 7.13978 26.2879 2.58444C25.7278 2.08717 25.0142 1.93528 24.3161 2.24242C23.5566 2.57657 23.452 3.28948 23.4207 4.03573C23.4177 18.2316 23.4614 30.9899 23.4353 44.2704C23.428 45.6625 23.036 47.9248 25.0961 47.8993C27.1292 47.8741 26.6841 45.0572 26.6988 44.1642C26.701 32.754 26.7522 20.9551 26.6929 9.30775C26.6811 9.00589 26.4814 7.36944 27.1742 7.9679C33.8697 14.5974 36.7032 17.3787 42.0736 22.6548C43.1442 23.698 43.9038 24.9574 45.3655 24.4582C46.5349 24.0587 46.3206 22.5166 45.6664 21.6366V21.6366ZM20.1255 9.85404C19.931 8.71386 18.6021 8.12499 17.6372 8.76149C13.5287 12.7462 9.47686 16.7955 5.36154 20.7722C4.65413 21.4558 3.61691 22.1522 3.80556 23.2718C3.99577 24.4007 5.36966 24.9628 6.31826 24.3213C9.91156 20.8715 15.8416 15.0105 18.5918 12.3081C19.2963 11.6208 20.312 10.948 20.1255 9.85404Z" fill="#BEAF90"/>
</svg>
