<svg width="18" height="18" viewBox="0 0 18 18" fill="none" xmlns="http://www.w3.org/2000/svg">
<path fill-rule="evenodd" clip-rule="evenodd" d="M1.7998 4.2751C1.7998 3.90231 2.10201 3.6001 2.4748 3.6001H15.5248C15.8976 3.6001 16.1998 3.90231 16.1998 4.2751C16.1998 4.64789 15.8976 4.9501 15.5248 4.9501H2.4748C2.10201 4.9501 1.7998 4.64789 1.7998 4.2751ZM1.7998 13.7251C1.7998 13.3523 2.10201 13.0501 2.4748 13.0501H9.2248C9.5976 13.0501 9.89981 13.3523 9.89981 13.7251C9.89981 14.0979 9.5976 14.4001 9.2248 14.4001H2.4748C2.10201 14.4001 1.7998 14.0979 1.7998 13.7251Z" fill="#BEAF90"/>
<path fill-rule="evenodd" clip-rule="evenodd" d="M1.7998 9.0002C1.7998 8.6274 2.10201 8.3252 2.4748 8.3252H15.5248C15.8976 8.3252 16.1998 8.6274 16.1998 9.0002C16.1998 9.37299 15.8976 9.6752 15.5248 9.6752H2.4748C2.10201 9.6752 1.7998 9.37299 1.7998 9.0002Z" fill="#BEAF90"/>
</svg>
