<svg width="20" height="18" viewBox="0 0 20 18" fill="none" xmlns="http://www.w3.org/2000/svg">
<g clip-path="url(#clip0_1_2648)">
<path d="M0.312249 0.910334C0.309186 0.918502 0.29795 0.925655 0.286719 0.925655C0.259141 0.925655 0.152931 0.985909 0.117191 1.02268C0.0814456 1.05842 0.0201699 1.16463 0.0201699 1.19118C0.0201699 1.20139 0.0160861 1.21365 0.00995455 1.21671C-0.00331818 1.22488 -0.00331818 1.41279 0.00995455 1.42096C0.0160861 1.42402 0.0201699 1.43526 0.0201699 1.44649C0.0201699 1.4996 0.123317 1.63236 0.198886 1.6773C0.28774 1.72836 0.246889 1.72734 1.37844 1.73346C1.96565 1.73653 2.46198 1.74266 2.48139 1.74674C2.56105 1.76206 2.6019 1.77533 2.68054 1.80904C2.84495 1.8795 2.9767 1.97857 3.09312 2.11848C3.16052 2.20017 3.23303 2.32171 3.24835 2.38094C3.25652 2.41056 3.26776 2.45242 3.28818 2.52392C3.29431 2.54332 3.3035 2.57702 3.30962 2.59745C3.3229 2.64647 3.33822 2.69855 3.35047 2.74042C3.35558 2.7588 3.36477 2.79046 3.36988 2.80987C3.37601 2.82927 3.3852 2.86195 3.3903 2.88135C3.39643 2.90076 3.4046 2.93241 3.40971 2.94978C3.41482 2.96816 3.43422 3.03148 3.45158 3.09071C3.46894 3.14994 3.48835 3.21326 3.49345 3.23062C3.49856 3.249 3.50673 3.27964 3.51183 3.297C3.51694 3.31539 3.53635 3.37871 3.5537 3.43794C3.57107 3.49717 3.59047 3.56049 3.59558 3.57785C3.60069 3.59623 3.60885 3.62687 3.61396 3.64423C3.61907 3.66262 3.63847 3.72593 3.65583 3.78516C3.67319 3.8444 3.6926 3.90873 3.6977 3.92814C3.71506 3.99044 3.72528 4.0221 3.75796 4.13239C3.77532 4.19163 3.7937 4.2529 3.79881 4.27026C3.80392 4.2866 3.81719 4.33255 3.82945 4.37239C3.8417 4.4112 3.856 4.46022 3.8611 4.47962C3.87847 4.54192 3.88868 4.57358 3.92136 4.68387C3.93872 4.74311 3.95813 4.80744 3.96323 4.82685C3.98059 4.88915 3.9908 4.92081 4.02348 5.0311C4.04085 5.09033 4.06025 5.15365 4.06536 5.17101C4.07046 5.1894 4.07863 5.22003 4.08374 5.2374C4.08884 5.25578 4.10825 5.3191 4.12561 5.37833C4.14297 5.43756 4.16135 5.49883 4.16646 5.5162C4.17157 5.53254 4.18484 5.57849 4.1971 5.61832C4.20935 5.65713 4.22365 5.70615 4.22875 5.72555C4.24611 5.78785 4.25633 5.81951 4.28901 5.92981C4.30637 5.98904 4.32577 6.05236 4.33088 6.06972C4.33599 6.0881 4.34416 6.11874 4.34926 6.1361C4.35437 6.15449 4.37378 6.2178 4.39113 6.27703C4.4085 6.33627 4.4279 6.39958 4.433 6.41695C4.43811 6.43533 4.44628 6.46597 4.45139 6.48333C4.4565 6.50171 4.4759 6.56503 4.49326 6.62426C4.51062 6.6835 4.53003 6.74783 4.53513 6.76724C4.55249 6.82954 4.56271 6.8612 4.59539 6.97149C4.61275 7.03072 4.63215 7.09404 4.63726 7.1114C4.64237 7.12979 4.65054 7.16042 4.65564 7.17779C4.66075 7.19617 4.68424 7.27583 4.70773 7.35447C4.73121 7.4331 4.7547 7.51378 4.75981 7.53318C4.77717 7.59548 4.78739 7.62714 4.82007 7.73743C4.83743 7.79667 4.85683 7.85999 4.86194 7.87735C4.86704 7.89573 4.87623 7.92739 4.88134 7.9468C4.88747 7.9662 4.89666 7.99888 4.90177 8.01828C4.9079 8.03769 4.91607 8.06934 4.92117 8.0867C4.92628 8.10509 4.94977 8.18475 4.97325 8.26338C4.99675 8.34202 5.02024 8.42168 5.02534 8.43904C5.03045 8.45742 5.03964 8.48908 5.04475 8.50848C5.05088 8.52789 5.06007 8.56159 5.06619 8.58202C5.0856 8.65146 5.09376 8.68006 5.13666 8.82507C5.16015 8.90371 5.18364 8.98439 5.18874 9.00379C5.19487 9.0232 5.20304 9.05485 5.20917 9.07221C5.22143 9.11511 5.23573 9.16719 5.25002 9.21519C5.25513 9.23664 5.26432 9.26728 5.26942 9.28463C5.27453 9.30098 5.2827 9.33162 5.28883 9.35102C5.29394 9.37042 5.30313 9.4031 5.30926 9.42251C5.31436 9.44191 5.32355 9.47459 5.32968 9.49399C5.33479 9.5134 5.34398 9.54608 5.35011 9.56548C5.35521 9.58488 5.36543 9.61859 5.37053 9.63901C5.37667 9.66046 5.38688 9.69518 5.393 9.7156C5.39811 9.73705 5.4073 9.76973 5.41343 9.78709C5.41854 9.80547 5.42773 9.83713 5.43283 9.85653C5.43896 9.87594 5.44815 9.90862 5.45326 9.92802C5.45939 9.94742 5.46858 9.98112 5.4747 10.0015C5.47981 10.023 5.489 10.0557 5.49513 10.073C5.50024 10.0914 5.50943 10.1241 5.51556 10.1445C5.52066 10.166 5.52986 10.1966 5.53496 10.214C5.55028 10.2671 5.56662 10.3253 5.57581 10.362C5.58092 10.3815 5.59011 10.4162 5.59624 10.4386C5.60236 10.4611 5.61156 10.4958 5.61666 10.5152C5.62177 10.5346 5.63505 10.5877 5.6473 10.6327C5.65956 10.6776 5.67385 10.7328 5.67794 10.7552C5.68304 10.7777 5.69121 10.8145 5.69734 10.8369C5.70653 10.8747 5.71164 10.8941 5.73921 10.9901C5.74534 11.0095 5.75351 11.0412 5.75862 11.0585C5.81071 11.2475 5.93019 11.5344 6.04763 11.754C6.32235 12.2646 6.72983 12.6568 7.18429 12.8488C7.20676 12.858 7.23433 12.8702 7.24556 12.8754C7.2568 12.8794 7.29867 12.8937 7.33748 12.906C7.3773 12.9182 7.41816 12.9315 7.42939 12.9366C7.46003 12.9479 7.56419 12.9693 7.68981 12.9897C7.74802 12.9989 8.756 13.002 11.831 13.002H15.8956L15.965 12.9693C16.1703 12.8713 16.2622 12.6231 16.1662 12.4199C16.1162 12.3137 16.0355 12.2371 15.9323 12.1962C15.8905 12.1799 15.6444 12.1789 11.9392 12.1789C8.54971 12.1799 7.9727 12.1778 7.86343 12.1646C7.71943 12.1482 7.63671 12.1309 7.57747 12.1063C7.56317 12.1002 7.54275 12.0921 7.53152 12.088C7.3865 12.0318 7.23638 11.9317 7.1077 11.802C7.03212 11.7254 6.89323 11.5569 6.89323 11.5406C6.89323 11.5375 6.87996 11.5161 6.86362 11.4926C6.80336 11.4047 6.7043 11.2117 6.65732 11.0892C6.65222 11.0769 6.64404 11.0565 6.63894 11.0432C6.63383 11.031 6.62362 11.0024 6.61647 10.9799C6.60933 10.9574 6.59911 10.9329 6.59298 10.9258C6.58788 10.9186 6.58686 10.9105 6.58992 10.9064C6.594 10.9033 8.61405 10.9013 11.0794 10.9023C15.5433 10.9043 15.7495 10.9033 15.9926 10.8706C16.3991 10.8165 16.6666 10.6766 16.878 10.4049C17.0241 10.2191 17.2671 9.78606 17.4499 9.38675C17.4734 9.33569 17.5112 9.25501 17.5337 9.20497C17.6419 8.97417 17.6572 8.94046 17.6572 8.9374C17.6572 8.93536 17.6746 8.89553 17.6971 8.84855C17.7185 8.80259 17.7788 8.66983 17.8309 8.55443C17.8829 8.43903 17.9473 8.29707 17.9738 8.23784C18.0361 8.10201 18.2138 7.7027 18.509 7.03787C18.6366 6.75089 18.7541 6.48843 18.7714 6.45269C18.7878 6.41695 18.801 6.38631 18.801 6.38324C18.801 6.3812 18.8194 6.33933 18.8419 6.29133C18.8644 6.24333 18.8827 6.20146 18.8827 6.19942C18.8827 6.19533 19.4281 4.96778 19.4843 4.84422C19.5016 4.80643 19.5159 4.77375 19.5159 4.7717C19.5159 4.76966 19.5343 4.72677 19.5578 4.67673C19.5986 4.58686 19.6068 4.56848 19.6487 4.47452C19.6701 4.42448 19.6916 4.37751 19.7437 4.26517C19.8049 4.13036 19.8223 4.09053 19.8223 4.07828C19.8223 4.07113 19.8264 4.06092 19.8305 4.05479C19.8356 4.04968 19.8499 4.01088 19.8621 3.96901C19.8754 3.92714 19.8897 3.88322 19.8938 3.87199C19.9132 3.8199 19.9244 3.77701 19.9244 3.75658C19.9244 3.74535 19.9285 3.73309 19.9336 3.73003C19.9387 3.72697 19.9449 3.70654 19.9479 3.68612C19.951 3.66468 19.9591 3.62178 19.9653 3.59114C19.9928 3.45328 20 3.36953 20 3.19796C20 3.09686 19.9949 2.98861 19.9888 2.95797C19.9632 2.8395 19.9561 2.81193 19.9336 2.75576C19.9285 2.7435 19.9203 2.72206 19.9142 2.70776C19.8907 2.64853 19.8764 2.623 19.8386 2.56478C19.7426 2.41976 19.6334 2.3207 19.4822 2.24309C19.3535 2.17772 19.281 2.15526 19.0819 2.12054C19.0043 2.10726 6.04457 2.10522 5.99963 2.1185C5.8781 2.15424 5.78721 2.23083 5.73206 2.34317C5.69734 2.4116 5.69325 2.431 5.68917 2.51167C5.68713 2.58623 5.69019 2.6138 5.70857 2.66487C5.73717 2.74146 5.777 2.80171 5.83113 2.84767C5.86789 2.88035 5.89648 2.89567 5.98942 2.93856C6.01495 2.95081 7.02803 2.95286 12.5275 2.9549L19.0359 2.95694L19.0829 2.98043C19.1585 3.01822 19.185 3.08971 19.1748 3.23473C19.1677 3.3583 19.1554 3.42672 19.1197 3.5605C19.1054 3.61361 19.0574 3.75557 19.041 3.79028C19.0084 3.86484 18.9726 3.94348 18.9399 4.0119C18.9216 4.05275 18.894 4.11198 18.8797 4.14262C18.8664 4.17326 18.8399 4.23045 18.8215 4.27027C18.8031 4.30908 18.7622 4.401 18.7296 4.47453C18.6969 4.54704 18.6581 4.63486 18.6428 4.66857C18.6274 4.70227 18.609 4.74312 18.6019 4.76048C18.5937 4.77682 18.5692 4.83196 18.5468 4.88099C18.5233 4.93103 18.5049 4.97392 18.5049 4.97596C18.5049 4.97903 18.4865 5.01988 18.464 5.06788C18.4416 5.11588 18.4232 5.15775 18.4232 5.15979C18.4232 5.16183 18.4119 5.18736 18.3987 5.21698C18.3854 5.2466 18.364 5.29357 18.3517 5.32217C18.3394 5.34974 18.3231 5.38651 18.316 5.40387C18.3078 5.42021 18.1822 5.70514 18.0351 6.03705C17.888 6.36793 17.7553 6.66818 17.7379 6.70393C17.7216 6.73967 17.7083 6.77031 17.7083 6.77337C17.7083 6.77541 17.6899 6.81728 17.6675 6.86528C17.645 6.91328 17.6266 6.95515 17.6266 6.9572C17.6266 6.96026 17.6082 7.00111 17.5858 7.04911C17.5633 7.09711 17.5449 7.13898 17.5449 7.14102C17.5449 7.14307 17.5306 7.17574 17.5132 7.21353C17.4959 7.25234 17.4275 7.4045 17.3611 7.55361C17.2283 7.85181 17.2018 7.91105 17.1507 8.02134C17.1313 8.06321 17.116 8.09794 17.116 8.09998C17.116 8.10202 17.0956 8.14593 17.071 8.19903C17.0465 8.25112 17.0118 8.32874 16.9934 8.37061C16.9648 8.43495 16.8699 8.64533 16.7555 8.89145C16.5574 9.32242 16.4123 9.59612 16.2612 9.82283C16.1713 9.95866 16.0876 10.0077 15.8843 10.0444C15.8404 10.0526 14.4679 10.0557 11.0947 10.0557H6.36729L6.35503 10.0281C6.34891 10.0118 6.34074 9.98521 6.33768 9.96887C6.32848 9.93006 6.31521 9.87798 6.30091 9.8259C6.29478 9.80343 6.28559 9.76871 6.28049 9.7493C6.27538 9.7299 6.26619 9.69518 6.26005 9.67271C6.25393 9.65025 6.24473 9.61552 6.23963 9.59612C6.23452 9.57671 6.22533 9.54199 6.2192 9.51953C6.21308 9.49706 6.20388 9.46234 6.19878 9.44293C6.19367 9.42353 6.18448 9.38881 6.17835 9.36634C6.17222 9.34387 6.16303 9.30915 6.15792 9.28975C6.15384 9.27034 6.1426 9.22745 6.13341 9.19477C6.11911 9.14268 6.09971 9.07324 6.07622 8.98848C6.07112 8.97112 6.0609 8.93231 6.05273 8.90167C6.04354 8.87104 6.02925 8.81793 6.02005 8.78423C5.99758 8.70355 5.98942 8.67393 5.97001 8.60347C5.96082 8.57078 5.94652 8.5187 5.93836 8.48806C5.93018 8.45743 5.91589 8.40636 5.90772 8.37573C5.89955 8.34509 5.88525 8.293 5.87606 8.26032C5.86686 8.22867 5.85666 8.18782 5.85154 8.17147C5.84644 8.15411 5.83623 8.11428 5.82704 8.08161C5.81785 8.04994 5.80355 7.99684 5.79435 7.96416C5.78516 7.9325 5.77393 7.89063 5.76883 7.87225C5.76372 7.85489 5.75555 7.82425 5.75045 7.80587C5.74533 7.78851 5.73308 7.74561 5.72389 7.71191C5.7147 7.67821 5.69836 7.61795 5.68713 7.57915C5.67589 7.53932 5.66261 7.48927 5.65649 7.46681C5.65036 7.44434 5.64117 7.41472 5.63708 7.40043C5.62892 7.3749 5.62279 7.35242 5.58602 7.2166C5.54926 7.08078 5.54313 7.0583 5.53496 7.03277C5.53087 7.01847 5.52168 6.98886 5.51555 6.96639C5.50943 6.94392 5.49104 6.87448 5.47368 6.8132C5.43896 6.68759 5.42364 6.63346 5.41139 6.58853C5.40628 6.57117 5.38381 6.49151 5.36135 6.40981C5.31845 6.25458 5.30314 6.20045 5.28884 6.14939C5.28373 6.13203 5.26535 6.06769 5.24901 6.00641C5.20203 5.83382 5.19591 5.81442 5.18773 5.78685C5.17957 5.76132 5.17343 5.73884 5.13667 5.60302C5.09991 5.46719 5.09378 5.44472 5.08561 5.41919C5.08152 5.40489 5.07233 5.37528 5.0662 5.35281C5.06008 5.33034 5.03658 5.24557 5.01412 5.16388C4.99165 5.08218 4.96816 4.99741 4.96204 4.97495C4.9559 4.95248 4.94671 4.92286 4.94263 4.90856C4.93855 4.89426 4.92935 4.86465 4.92323 4.84218C4.9171 4.81971 4.89361 4.73495 4.87114 4.65325C4.84867 4.57155 4.82518 4.48678 4.81905 4.46432C4.81293 4.44185 4.80373 4.41223 4.79965 4.39793C4.79556 4.38364 4.78638 4.35402 4.78127 4.33155C4.77514 4.30908 4.76084 4.25802 4.74961 4.21921C4.73837 4.17938 4.71897 4.113 4.70774 4.07113C4.66791 3.92407 4.66485 3.91283 4.65667 3.8873C4.65259 3.87301 4.6434 3.84339 4.63829 3.82092C4.63216 3.79845 4.61786 3.74739 4.60663 3.70858C4.5954 3.66875 4.576 3.60237 4.56476 3.5605C4.52493 3.41344 4.52187 3.4022 4.5137 3.37667C4.50961 3.36238 4.50042 3.33071 4.49327 3.30518C4.48612 3.27965 4.47693 3.24799 4.47285 3.2337C4.46876 3.2194 4.45957 3.18979 4.45344 3.16732C4.44732 3.14485 4.43404 3.09379 4.42281 3.05498C4.41157 3.01515 4.39523 2.95592 4.38604 2.92222C4.36153 2.83541 4.3503 2.79354 4.34008 2.75881C4.33498 2.74146 4.32681 2.71184 4.32068 2.69243C4.31557 2.67303 4.30128 2.62196 4.28902 2.58009C4.27779 2.53822 4.25838 2.46878 4.24715 2.42691C4.22571 2.34827 4.21345 2.30333 4.19609 2.24512C4.18587 2.20938 4.17872 2.18283 4.14707 2.06947C4.13481 2.0276 4.11643 1.95815 4.10418 1.91627C4.07047 1.79679 4.06741 1.78249 4.048 1.71203C3.99388 1.50471 3.83456 1.28412 3.65278 1.1626C3.57312 1.10949 3.41176 1.02779 3.38725 1.02779C3.37806 1.02779 3.36785 1.02268 3.36478 1.01757C3.36172 1.01144 3.34538 1.00736 3.32904 1.00736C3.3127 1.00736 3.29636 1.00225 3.2933 0.997146C3.29024 0.99102 3.27389 0.986936 3.25858 0.986936C3.24326 0.986936 3.22692 0.982846 3.22079 0.977741C3.21569 0.972636 3.19117 0.96549 3.16564 0.962421C3.14011 0.958337 3.09007 0.951185 3.05331 0.946085C3.01654 0.939954 2.93178 0.931786 2.8654 0.927702C2.78778 0.921571 2.74182 0.914424 2.73876 0.907277C2.7357 0.898082 2.43749 0.89502 1.52653 0.89502C0.462389 0.89502 0.317371 0.897067 0.31226 0.91034L0.312249 0.910334V0.910334Z" fill="#BEAF90"/>
<path d="M7.53664 13.4362C7.52234 13.4403 7.49375 13.4444 7.47332 13.4454C7.42941 13.4464 7.34056 13.4658 7.22516 13.4985C6.69104 13.6517 6.25599 14.0173 6.00987 14.5198C5.92204 14.7016 5.87302 14.8609 5.83012 15.105C5.81379 15.202 5.81379 15.5237 5.83012 15.6319C5.90059 16.0843 6.08237 16.4479 6.39181 16.7553C6.57972 16.9422 6.7993 17.0852 7.05665 17.1863C7.07095 17.1924 7.09036 17.2006 7.09954 17.2057C7.10976 17.2108 7.12712 17.2149 7.13733 17.2149C7.14857 17.2149 7.16082 17.219 7.16388 17.2251C7.16695 17.2302 7.18329 17.2353 7.19963 17.2353C7.21596 17.2353 7.23128 17.2394 7.23435 17.2445C7.23741 17.2496 7.25477 17.2557 7.27316 17.2588C7.29154 17.2618 7.33035 17.27 7.35792 17.2761C7.47434 17.3017 7.57341 17.3098 7.76642 17.3088C7.98804 17.3088 8.09323 17.2976 8.26173 17.2557C8.28726 17.2496 8.31994 17.2414 8.33628 17.2384C8.3516 17.2353 8.36692 17.2292 8.36999 17.2241C8.37305 17.219 8.38429 17.2149 8.39552 17.2149C8.40573 17.2149 8.42309 17.2108 8.4333 17.2057C8.44964 17.1975 8.47415 17.1873 8.53032 17.1648C8.7744 17.0678 9.04299 16.8748 9.23192 16.6614C9.47191 16.3897 9.62919 16.0619 9.69353 15.6932C9.70986 15.6064 9.70986 15.1366 9.69353 15.0498C9.61489 14.6035 9.40043 14.2155 9.07363 13.9244C8.97559 13.8376 8.84998 13.7447 8.75193 13.6875C8.66411 13.6364 8.47313 13.5486 8.45067 13.5486C8.44352 13.5486 8.4333 13.5435 8.43024 13.5384C8.42718 13.5322 8.41288 13.5281 8.39961 13.5281C8.38633 13.5281 8.37305 13.5241 8.36999 13.519C8.36692 13.5138 8.3516 13.5077 8.33628 13.5047C8.31995 13.5016 8.28726 13.4934 8.26173 13.4873C8.18514 13.4679 8.12692 13.4556 8.06259 13.4454C7.98497 13.4321 7.57034 13.425 7.53664 13.4362L7.53664 13.4362V13.4362ZM7.97272 14.244C8.06871 14.2665 8.10344 14.2757 8.1208 14.2849C8.13101 14.29 8.14327 14.2941 8.14939 14.2941C8.15552 14.2941 8.19944 14.3125 8.24743 14.3349C8.55075 14.4769 8.79074 14.7649 8.87244 15.0856C8.90104 15.1989 8.90513 15.2347 8.90513 15.3715C8.90513 15.5084 8.90104 15.5441 8.87244 15.6575C8.78462 16.0016 8.51807 16.3049 8.18514 16.4397C8.14736 16.4551 8.04217 16.4867 7.986 16.5C7.91246 16.5184 7.62141 16.5194 7.55196 16.501C7.43349 16.4714 7.41817 16.4673 7.40184 16.4581C7.39162 16.453 7.37937 16.4489 7.37324 16.4489C7.36201 16.4489 7.23844 16.3907 7.18329 16.3591C7.01682 16.2641 6.81258 16.0425 6.737 15.874C6.69207 15.7759 6.67879 15.7381 6.6604 15.6677C6.65428 15.6452 6.64407 15.6064 6.63794 15.5809C6.6216 15.5196 6.6216 15.2306 6.63794 15.1611C6.65326 15.0958 6.68594 14.9814 6.69819 14.9528C6.78806 14.7373 6.95453 14.5351 7.14039 14.4136C7.18942 14.3819 7.23129 14.3554 7.23435 14.3554C7.23742 14.3554 7.26806 14.3421 7.3038 14.3257C7.38754 14.288 7.43452 14.2726 7.55196 14.244C7.61017 14.2308 7.91451 14.2308 7.97272 14.244Z" fill="#BEAF90"/>
<path d="M15.4809 13.4309C15.4769 13.434 15.4421 13.4411 15.4044 13.4462C15.338 13.4544 15.3032 13.4616 15.2011 13.485C15.1603 13.4942 15.0153 13.5412 14.9764 13.5576C14.9039 13.5882 14.7242 13.6791 14.6885 13.7036C14.665 13.7189 14.6425 13.7322 14.6384 13.7322C14.6211 13.7322 14.427 13.8874 14.3392 13.9722C14.0716 14.2306 13.9123 14.5063 13.7969 14.9117C13.7928 14.9281 13.7836 14.974 13.7775 15.0139C13.7703 15.0527 13.7612 15.1109 13.7561 15.1425C13.7428 15.2161 13.7428 15.5265 13.7561 15.6001C13.7612 15.6317 13.7703 15.6889 13.7775 15.7287C13.7908 15.8145 13.7938 15.8247 13.848 15.9932C13.899 16.1505 14.0042 16.3629 14.1012 16.4998C14.1799 16.6121 14.4097 16.847 14.522 16.9308C14.6997 17.0625 14.9366 17.181 15.1347 17.2361C15.3472 17.2964 15.4452 17.3086 15.6964 17.3086C15.8935 17.3086 15.9711 17.3025 16.1049 17.2759C16.1356 17.2698 16.1764 17.2627 16.1948 17.2586C16.2132 17.2555 16.2305 17.2494 16.2336 17.2443C16.2367 17.2392 16.2499 17.2351 16.2632 17.2351C16.2765 17.2351 16.2908 17.23 16.2939 17.2249C16.2969 17.2187 16.3112 17.2147 16.3245 17.2147C16.3378 17.2147 16.3521 17.2106 16.3551 17.2044C16.3582 17.1993 16.3705 17.1942 16.3817 17.1942C16.3919 17.1942 16.4093 17.1901 16.4195 17.185C16.4287 17.1789 16.4848 17.1524 16.5441 17.1248C16.7575 17.0237 16.9066 16.9165 17.0904 16.7306C17.3498 16.4702 17.5245 16.1495 17.6052 15.7849C17.6378 15.6348 17.6419 15.595 17.6419 15.3713C17.6419 15.1476 17.6378 15.1078 17.6052 14.9577C17.4928 14.4522 17.1711 13.9906 16.7483 13.7281C16.6023 13.6372 16.443 13.5596 16.3368 13.5259C16.2234 13.4912 16.0753 13.4554 15.9773 13.4401C15.9191 13.4319 15.4881 13.4227 15.4809 13.4309V13.4309ZM15.9048 14.2438C15.9272 14.25 15.965 14.2592 15.9875 14.2653C16.1111 14.2969 16.1948 14.3357 16.3194 14.4154C16.5165 14.542 16.684 14.7493 16.7657 14.9679C16.7861 15.022 16.7922 15.0445 16.8219 15.1568C16.8392 15.2263 16.8392 15.5306 16.8208 15.5909C16.8137 15.6164 16.8035 15.6552 16.7973 15.6777C16.7126 16.0045 16.4368 16.3139 16.1202 16.4354C16.0416 16.4651 16.0202 16.4722 15.9058 16.5008C15.8384 16.5182 15.5412 16.5192 15.484 16.5018C15.4605 16.4947 15.4217 16.4845 15.3982 16.4783C15.3227 16.4579 15.2961 16.4477 15.1909 16.3966C14.9468 16.2782 14.7508 16.0709 14.6456 15.8206C14.5976 15.7063 14.5955 15.7022 14.5884 15.6675C14.5853 15.6501 14.5771 15.6113 14.57 15.5807C14.5547 15.5061 14.5547 15.2324 14.57 15.1619C14.5771 15.1313 14.5853 15.0915 14.5884 15.0751C14.5925 15.0578 14.5986 15.0353 14.6037 15.0241C14.6078 15.0128 14.6221 14.9761 14.6354 14.9424C14.7048 14.7596 14.8468 14.5798 15.0255 14.446C15.1021 14.3888 15.2808 14.2939 15.3124 14.2939C15.3206 14.2939 15.3308 14.2888 15.3339 14.2837C15.337 14.2775 15.3502 14.2734 15.3615 14.2734C15.3737 14.2734 15.3972 14.2694 15.4146 14.2643C15.4319 14.2581 15.4626 14.25 15.482 14.2449C15.532 14.2306 15.8537 14.2306 15.9048 14.2438V14.2438V14.2438Z" fill="#BEAF90"/>
</g>
<defs>
<clipPath id="clip0_1_2648">
<rect width="20" height="18" fill="white"/>
</clipPath>
</defs>
</svg>
