<svg width="31" height="64" viewBox="0 0 31 64" fill="none" xmlns="http://www.w3.org/2000/svg">
<path d="M8.864 0.215996C15.072 0.215996 20.256 2.104 24.416 5.88C28.64 9.592 30.752 14.232 30.752 19.8C30.752 24.728 29.216 28.92 26.144 32.376C23.072 35.832 18.848 37.944 13.472 38.712V47.256H4.448L4.448 30.936C5.024 31.064 5.952 31.128 7.232 31.128C11.008 31.128 14.08 30.104 16.448 28.056C18.816 26.008 20 23.32 20 19.992C20 16.6 18.816 14.008 16.448 12.216C14.144 10.36 11.072 9.432 7.232 9.432C4.736 9.432 2.592 9.784 0.8 10.488V1.56C3.36 0.663996 6.048 0.215996 8.864 0.215996ZM8.96 51.384C10.688 51.384 12.192 51.992 13.472 53.208C14.752 54.424 15.392 55.864 15.392 57.528C15.392 59.192 14.752 60.632 13.472 61.848C12.192 63.064 10.688 63.672 8.96 63.672C7.168 63.672 5.632 63.064 4.352 61.848C3.072 60.632 2.432 59.192 2.432 57.528C2.432 55.864 3.072 54.424 4.352 53.208C5.632 51.992 7.168 51.384 8.96 51.384Z" fill="white"/>
</svg>
