<svg width="174" height="41" viewBox="0 0 174 41" fill="none" xmlns="http://www.w3.org/2000/svg">
<g clip-path="url(#clip0_88_25683)">
<path d="M24.404 0.0527344V39.0182H23.3092H16.3144C11.1443 39.0182 7.25152 38.0164 4.51442 36.0128C1.83814 34.0618 0.5 31.1618 0.5 27.3127C0.5 23.2527 1.95979 20.1946 4.87936 18.0327C7.79894 15.9764 11.9958 14.8691 17.47 14.8691H18.869V0.0527344H22.3968H24.404ZM18.9906 18.2437C15.9494 18.2964 13.7597 18.9291 12.3608 20.3C11.0226 21.6709 10.3536 23.8327 10.3536 26.9437C10.3536 30.0018 11.0226 32.2164 12.3608 33.5346C13.6989 34.8527 15.8886 35.5382 18.9906 35.5909V18.2437Z" fill="#3A3A3A"/>
<path d="M32.5547 39.0183L39.7928 19.351C40.4619 17.4001 41.3134 16.0292 42.2258 15.2382C43.199 14.5001 44.3546 14.0782 45.9361 14.0782C47.3959 14.0782 48.4907 14.3946 49.3422 15.0801C50.133 15.7128 50.9237 17.031 51.5928 18.8764L59.0742 38.9128H49.5855L48.0649 34.4837H38.8196L37.3598 38.9128H32.5547V39.0183ZM39.9145 31.2673H46.8484L43.5031 20.7746L39.9145 31.2673Z" fill="#3A3A3A"/>
<path d="M64.1216 14.8691H73.1845V29.6328C73.1845 31.7946 73.4886 33.3237 74.2185 34.2201C74.8876 35.1164 76.0432 35.591 77.6247 35.591C79.2669 35.591 80.4226 35.1691 81.0917 34.2201C81.7607 33.3237 82.1257 31.7419 82.1257 29.6328V14.8691H86.6267V30.4764C86.6267 33.5873 85.6535 36.0128 83.768 37.5419C81.8824 39.1237 79.0845 39.9146 75.3134 39.9146C71.4814 39.9146 68.6227 39.1764 66.7979 37.6473C64.9732 36.1182 64 33.7455 64 30.5291V14.8691H64.1216Z" fill="#3A3A3A"/>
<path d="M100.436 39.0182V0.0527344H103.842V39.0182H100.436ZM111.749 39.0182L104.267 27.3655L112.661 14.8691H118.196L112.235 24.0437L121.785 38.9655H111.749V39.0182Z" fill="#3A3A3A"/>
<path d="M131.089 39.0182C128.961 39.0182 127.44 38.5964 126.528 37.7528C125.676 36.9091 125.189 35.5382 125.189 33.4819V20.4055C125.189 18.4019 125.615 16.9782 126.528 16.1346C127.379 15.291 128.9 14.8691 131.089 14.8691H143.984V18.4546H137.172C136.016 18.4546 135.286 18.6128 134.861 18.9819C134.496 19.351 134.313 20.0891 134.313 21.091V25.0455H143.011V28.631H134.313V32.691C134.313 33.7455 134.496 34.431 134.861 34.7473C135.225 35.0637 136.016 35.2219 137.172 35.2219H144.471V38.8073H131.029V39.0182H131.089Z" fill="#3A3A3A"/>
<path d="M155.907 23.3054V39.0181H151.406V18.8236C151.406 17.189 151.771 16.029 152.562 15.2909C153.292 14.5527 154.447 14.1309 155.968 14.1309C157.245 14.1309 158.34 14.4472 159.374 15.08C160.408 15.66 161.381 16.7672 162.476 18.2436L168.741 26.9963V14.869H173.242V35.8545C173.242 37.3309 172.999 38.3327 172.512 38.9654C172.026 39.5454 171.174 39.9145 170.14 39.9145C169.349 39.9145 168.498 39.7036 167.829 39.2291C167.16 38.7545 166.247 37.8054 165.274 36.4345L155.907 23.3054Z" fill="#3A3A3A"/>
<path d="M29.3317 0.0527344H25.9863V38.9655H29.3317V0.0527344Z" fill="#3A3A3A"/>
<path d="M99.0348 0.0527344H94.4121V38.9655H99.0348V0.0527344Z" fill="#3A3A3A"/>
</g>
<defs>
<clipPath id="clip0_88_25683">
<rect width="172.802" height="40.0727" fill="white" transform="translate(0.5)"/>
</clipPath>
</defs>
</svg>
