<svg width="150" height="41" viewBox="0 0 150 41" fill="none" xmlns="http://www.w3.org/2000/svg">
<g clip-path="url(#clip0_1_2662)">
<path d="M20.7497 0.0537109V39.6568H19.7994H13.7276C9.2397 39.6568 5.86061 38.6386 3.48469 36.6022C1.16156 34.6193 0 31.6719 0 27.7598C0 23.6334 1.26716 20.5251 3.80148 18.3279C6.3358 16.2379 9.97888 15.1125 14.7307 15.1125H15.9451V0.0537109H19.0074H20.7497ZM16.0507 18.5423C13.4108 18.5959 11.51 19.239 10.2957 20.6323C9.13411 22.0257 8.55333 24.2228 8.55333 27.3847C8.55333 30.4929 9.13411 32.7437 10.2957 34.0834C11.4572 35.4232 13.358 36.1198 16.0507 36.1734V18.5423Z" fill="white"/>
<path d="M27.8247 39.6567L34.1077 19.6676C34.6885 17.6848 35.4277 16.2914 36.2196 15.4876C37.0644 14.7373 38.0676 14.3086 39.4403 14.3086C40.7075 14.3086 41.6579 14.6301 42.397 15.3268C43.0834 15.9699 43.7698 17.3096 44.3506 19.1853L50.8448 39.5495H42.6082L41.2883 35.048H33.2629L31.9958 39.5495H27.8247V39.6567ZM34.2133 31.779H40.2323L37.3284 21.1145L34.2133 31.779Z" fill="white"/>
<path d="M55.2269 15.1123H63.0939V30.1175C63.0939 32.3147 63.3579 33.8688 63.9915 34.7799C64.5722 35.6909 65.5754 36.1732 66.9482 36.1732C68.3737 36.1732 69.3769 35.7445 69.9577 34.7799C70.5384 33.8688 70.8552 32.2611 70.8552 30.1175V15.1123H74.7623V30.975C74.7623 34.1368 73.9175 36.6019 72.2808 38.156C70.644 39.7637 68.2153 40.5676 64.9418 40.5676C61.6155 40.5676 59.134 39.8173 57.5501 38.2632C55.9661 36.7091 55.1213 34.2976 55.1213 31.0286V15.1123H55.2269Z" fill="white"/>
<path d="M86.7476 39.6568V0.0537109H89.7043V39.6568H86.7476ZM96.568 39.6568L90.0739 27.8134L97.36 15.1125H102.165L96.9904 24.4372L105.28 39.6032H96.568V39.6568V39.6568Z" fill="white"/>
<path d="M113.358 39.6566C111.51 39.6566 110.19 39.2279 109.398 38.3704C108.659 37.513 108.237 36.1196 108.237 34.0296V20.7393C108.237 18.7028 108.606 17.2559 109.398 16.3985C110.137 15.541 111.457 15.1123 113.358 15.1123H124.551V18.7564H118.638C117.635 18.7564 117.001 18.9172 116.631 19.2923C116.315 19.6675 116.156 20.4177 116.156 21.4359V25.4552H123.706V29.0993H116.156V33.2258C116.156 34.2976 116.315 34.9942 116.631 35.3158C116.948 35.6373 117.635 35.7981 118.638 35.7981H124.974V39.4422H113.305V39.6566H113.358Z" fill="white"/>
<path d="M134.9 23.687V39.6568H130.993V19.1318C130.993 17.4705 131.309 16.2915 131.996 15.5413C132.629 14.791 133.633 14.3623 134.953 14.3623C136.061 14.3623 137.012 14.6838 137.909 15.3269C138.807 15.9164 139.652 17.0418 140.602 18.5423L146.04 27.4383V15.1126H149.947V36.4414C149.947 37.9419 149.736 38.9602 149.314 39.6032C148.891 40.1927 148.152 40.5679 147.255 40.5679C146.568 40.5679 145.829 40.3535 145.248 39.8712C144.667 39.3889 143.875 38.4243 143.031 37.0309L134.9 23.687Z" fill="white"/>
<path d="M25.0265 0.0537109H22.1226V39.6032H25.0265V0.0537109Z" fill="white"/>
<path d="M85.5332 0.0537109H81.5205V39.6032H85.5332V0.0537109Z" fill="white"/>
</g>
<defs>
<clipPath id="clip0_1_2662">
<rect width="150" height="40.7285" fill="white"/>
</clipPath>
</defs>
</svg>
