<svg width="10" height="10" viewBox="0 0 10 10" fill="none" xmlns="http://www.w3.org/2000/svg">
<path fill-rule="evenodd" clip-rule="evenodd" d="M0.445986 5.16408C0.386653 3.98826 0.883115 2.70453 1.70061 1.86099C2.56218 0.971972 3.60005 0.502794 4.83913 0.441435C7.36594 0.316299 9.42614 2.35407 9.54785 4.83341C9.67181 7.35869 7.63671 9.43203 5.15972 9.54624C2.64331 9.66226 0.571155 7.64467 0.445986 5.16408ZM4.7458 0.0111998C3.9816 0.06275 3.45057 0.185429 2.76073 0.52611C1.01548 1.38803 -0.119966 3.32597 0.0101197 5.25991C0.0959388 6.53572 0.646166 7.80625 1.60896 8.66495C2.60364 9.55209 3.91982 10.0806 5.26515 9.98993C6.53957 9.90401 7.80857 9.35318 8.66635 8.38929C9.55544 7.39022 10.0808 6.08063 9.98983 4.72897C9.80616 1.99874 7.51543 -0.175614 4.7458 0.0111998ZM4.13154 4.57033H4.55517V7.36943H4.13154V7.81474H5.86841V7.36943H5.44479V4.12502H4.13154V4.57033ZM4.93644 1.96209C4.82372 1.98928 4.66404 1.98091 4.49734 2.17986C4.13062 2.61753 4.43845 3.30905 5.0843 3.25532C5.43802 3.2259 5.70425 2.86798 5.65195 2.51835C5.60341 2.1939 5.37954 2.00732 5.07223 1.95093C4.93227 1.92524 4.954 1.95785 4.93644 1.96209Z" fill="#BEAF90"/>
</svg>
