<svg width="242" height="48" viewBox="0 0 242 48" fill="none" xmlns="http://www.w3.org/2000/svg">
<g clip-path="url(#clip0_51_25396)">
<path d="M23.904 0.0527344V39.0182H22.8092H15.8144C10.6443 39.0182 6.75152 38.0164 4.01442 36.0128C1.33814 34.0618 0 31.1618 0 27.3127C0 23.2527 1.45979 20.1946 4.37936 18.0327C7.29894 15.9764 11.4958 14.8691 16.97 14.8691H18.369V0.0527344H21.8968H23.904ZM18.4906 18.2437C15.4494 18.2964 13.2597 18.9291 11.8608 20.3C10.5226 21.6709 9.85357 23.8327 9.85357 26.9437C9.85357 30.0018 10.5226 32.2164 11.8608 33.5346C13.1989 34.8527 15.3886 35.5382 18.4906 35.5909V18.2437Z" fill="white"/>
<path d="M32.0547 39.0183L39.2928 19.351C39.9619 17.4001 40.8134 16.0292 41.7258 15.2382C42.699 14.5001 43.8546 14.0782 45.4361 14.0782C46.8959 14.0782 47.9907 14.3946 48.8422 15.0801C49.633 15.7128 50.4237 17.031 51.0928 18.8764L58.5742 38.9128H49.0855L47.5649 34.4837H38.3196L36.8598 38.9128H32.0547V39.0183ZM39.4145 31.2673H46.3484L43.0031 20.7746L39.4145 31.2673Z" fill="white"/>
<path d="M63.6216 14.8691H72.6845V29.6328C72.6845 31.7946 72.9886 33.3237 73.7185 34.2201C74.3876 35.1164 75.5432 35.591 77.1247 35.591C78.7669 35.591 79.9226 35.1691 80.5917 34.2201C81.2607 33.3237 81.6257 31.7419 81.6257 29.6328V14.8691H86.1267V30.4764C86.1267 33.5873 85.1535 36.0128 83.268 37.5419C81.3824 39.1237 78.5845 39.9146 74.8134 39.9146C70.9814 39.9146 68.1227 39.1764 66.2979 37.6473C64.4732 36.1182 63.5 33.7455 63.5 30.5291V14.8691H63.6216Z" fill="white"/>
<path d="M99.9355 39.0182V0.0527344H103.342V39.0182H99.9355ZM111.249 39.0182L103.767 27.3655L112.161 14.8691H117.696L111.735 24.0437L121.285 38.9655H111.249V39.0182Z" fill="white"/>
<path d="M130.589 39.0182C128.461 39.0182 126.94 38.5964 126.028 37.7528C125.176 36.9091 124.689 35.5382 124.689 33.4819V20.4055C124.689 18.4019 125.115 16.9782 126.028 16.1346C126.879 15.291 128.4 14.8691 130.589 14.8691H143.484V18.4546H136.672C135.516 18.4546 134.786 18.6128 134.361 18.9819C133.996 19.351 133.813 20.0891 133.813 21.091V25.0455H142.511V28.631H133.813V32.691C133.813 33.7455 133.996 34.431 134.361 34.7473C134.725 35.0637 135.516 35.2219 136.672 35.2219H143.971V38.8073H130.529V39.0182H130.589Z" fill="white"/>
<path d="M155.407 23.3054V39.0181H150.906V18.8236C150.906 17.189 151.271 16.029 152.062 15.2909C152.792 14.5527 153.947 14.1309 155.468 14.1309C156.745 14.1309 157.84 14.4472 158.874 15.08C159.908 15.66 160.881 16.7672 161.976 18.2436L168.241 26.9963V14.869H172.742V35.8545C172.742 37.3309 172.499 38.3327 172.012 38.9654C171.526 39.5454 170.674 39.9145 169.64 39.9145C168.849 39.9145 167.998 39.7036 167.329 39.2291C166.66 38.7545 165.747 37.8054 164.774 36.4345L155.407 23.3054Z" fill="white"/>
<path d="M28.8317 0.0527344H25.4863V38.9655H28.8317V0.0527344Z" fill="white"/>
<path d="M98.5348 0.0527344H93.9121V38.9655H98.5348V0.0527344Z" fill="white"/>
</g>
<path d="M226.539 5.14307C224.357 5.28423 222.186 5.92547 220.324 7.08158C217.794 8.80657 216.835 11.0681 216.797 15.3993L216.759 19.156L208.709 26.094C200.238 33.377 198.666 35.332 199.318 37.8623C199.816 39.932 201.119 41.5038 202.768 42.2321C204.761 43.037 205.719 43.037 207.482 42.1172C208.288 41.7336 212.044 37.7474 215.877 33.301L222.815 25.213L226.533 25.213C230.788 25.213 233.165 24.2163 234.89 21.6481C236.231 19.6933 237.151 15.9749 236.768 14.3267L236.423 13.0616L233.701 15.6682C231.517 17.7382 230.52 18.3516 228.833 18.62C226.84 18.9264 226.61 18.8498 224.885 17.1248C223.122 15.3615 223.045 15.1699 223.352 13.1382C223.62 11.4515 224.233 10.4548 226.303 8.26994L228.91 5.54827L227.645 5.24157C227.063 5.12907 227.429 5.18344 226.539 5.14327L226.539 5.14307ZM204.31 36.7154C204.896 36.7154 205.371 37.1903 205.371 37.7759C205.371 38.3617 204.896 38.8366 204.31 38.8366C203.725 38.8366 203.25 38.3617 203.25 37.7759C203.25 37.1903 203.725 36.7154 204.31 36.7154Z" fill="white"/>
<path d="M224.885 28.0112C223.965 28.0112 220.668 31.8445 220.668 32.8793C220.668 33.7994 229.369 42.386 230.29 42.386C230.673 42.386 231.9 41.4662 233.012 40.3543C234.123 39.2044 235.043 38.0928 235.043 37.8244C235.043 37.0195 225.728 28.0111 224.885 28.0111L224.885 28.0112Z" fill="white"/>
<path d="M203.302 8.3468L202.152 9.38182C201.539 9.99521 201.041 10.6852 201.041 10.9919C201.079 11.7585 202.766 13.6367 203.417 13.6367C203.762 13.6367 205.679 15.2851 207.71 17.2402C211.39 20.8431 211.39 20.8431 212.31 19.8467C213.154 18.8886 213.154 18.85 209.742 15.4C207.825 13.5218 206.292 11.7202 206.292 11.4135C206.292 11.1067 205.602 10.3018 204.797 9.61188L203.302 8.3468Z" fill="white"/>
<defs>
<clipPath id="clip0_51_25396">
<rect width="172.802" height="40.0727" fill="white"/>
</clipPath>
</defs>
</svg>
