<svg width="80" height="60" viewBox="0 0 80 60" fill="none" xmlns="http://www.w3.org/2000/svg">
<path d="M31.9305 43.4297C31.2422 43.4297 30.5761 43.0547 30.1987 42.375C29.6436 41.3672 29.9766 40.0781 30.9314 39.4922L48.3835 28.8281L33.9289 19.7578V31.3359C33.9289 32.5078 33.0407 33.4453 31.9305 33.4453C30.8204 33.4453 29.9322 32.5078 29.9322 31.3359V16.0547C29.9322 15.3047 30.3097 14.6016 30.9536 14.2266C31.5975 13.8516 32.3524 13.8516 32.9741 14.25L53.3793 27.0703C53.9788 27.4453 54.3563 28.1484 54.3563 28.8984C54.3563 29.6484 53.9788 30.3281 53.3571 30.7031L32.9519 43.1719C32.6189 43.3359 32.2858 43.4297 31.9305 43.4297Z" fill="#BEAF90"/>
<path d="M68.7649 60H10.3247C9.21454 60 8.32639 59.0625 8.32639 57.8906C8.32639 56.7188 9.21454 55.7812 10.3247 55.7812H68.7649C72.7616 55.7812 76.0033 52.3125 76.0033 48.0703V11.9297C76.0033 7.66406 72.7616 4.21875 68.7649 4.21875H11.3017C7.34943 4.21875 3.99667 7.75781 3.99667 11.9297V47.1328C3.99667 48.3047 3.10852 49.2422 1.99833 49.2422C0.888149 49.2422 0 48.3047 0 47.1328V11.9297C0 5.34375 5.06245 0 11.3017 0H68.7649C74.9598 0 80 5.34375 80 11.9297V48.0703C79.9778 54.6562 74.9598 60 68.7649 60Z" fill="#BEAF90"/>
</svg>
