<svg width="32" height="32" viewBox="0 0 32 32" fill="none" xmlns="http://www.w3.org/2000/svg">
<path fill-rule="evenodd" clip-rule="evenodd" d="M17.4253 6.30859C15.3101 6.30859 13.1943 7.11167 11.5855 8.72033C8.5995 11.706 8.386 16.4378 10.9423 19.6746L6.59317 24.0233C6.41102 24.2049 6.30859 24.4516 6.30859 24.7088C6.30859 24.9661 6.41102 25.2128 6.59317 25.3947C6.77505 25.5773 7.02205 25.68 7.27988 25.68C7.5377 25.68 7.7847 25.5773 7.96658 25.3947L12.3157 21.046C15.5533 23.5983 20.2843 23.3888 23.2689 20.4047C26.4863 17.1874 26.4825 11.9374 23.2651 8.72066C21.6563 7.11201 19.5405 6.30893 17.4253 6.30893L17.4253 6.30859ZM17.4272 8.23041C19.0438 8.22906 20.6607 8.84761 21.8993 10.086C24.3765 12.5629 24.3765 16.5563 21.8993 19.0334C19.4222 21.5103 15.4322 21.5065 12.9552 19.0297C10.4781 16.5528 10.4781 12.5688 12.9552 10.0919C14.1937 8.85351 15.8106 8.23195 17.4273 8.23064L17.4272 8.23041Z" fill="#4C515A"/>
</svg>
