<svg width="20" height="18" viewBox="0 0 20 18" fill="none" xmlns="http://www.w3.org/2000/svg">
<path d="M2.14819 16.1295L6.27914 12.0646C5.19738 10.8893 4.53271 9.33495 4.53271 7.62455C4.53323 3.96568 7.54693 1 11.2648 1C14.9827 1 17.9964 3.96568 17.9964 7.62455C17.9964 11.2834 14.9827 14.2491 11.2648 14.2491C9.65843 14.2491 8.18509 13.6935 7.0278 12.7698L2.88083 16.8507C2.67877 17.0498 2.35072 17.0498 2.14867 16.8507C1.94613 16.6517 1.94613 16.3286 2.14819 16.1295V16.1295ZM11.2648 13.2299C14.4105 13.2299 16.9606 10.7203 16.9606 7.62455C16.9606 4.5288 14.4105 2.01922 11.2648 2.01922C8.11906 2.01922 5.56897 4.5288 5.56897 7.62455C5.56897 10.7203 8.11906 13.2299 11.2648 13.2299Z" fill="#BEAF90"/>
</svg>
