<svg width="25" height="24" viewBox="0 0 25 24" fill="none" xmlns="http://www.w3.org/2000/svg">
<path d="M14.184 3.51001L15.944 7.03001C16.184 7.52001 16.824 7.99001 17.364 8.08001L20.554 8.61001C22.594 8.95001 23.074 10.43 21.604 11.89L19.124 14.37C18.704 14.79 18.474 15.6 18.604 16.18L19.314 19.25C19.874 21.68 18.584 22.62 16.434 21.35L13.444 19.58C12.904 19.26 12.014 19.26 11.464 19.58L8.47401 21.35C6.33401 22.62 5.03401 21.67 5.59401 19.25L6.30401 16.18C6.43401 15.6 6.20401 14.79 5.78401 14.37L3.30401 11.89C1.84401 10.43 2.31401 8.95001 4.35401 8.61001L7.54401 8.08001C8.07401 7.99001 8.71401 7.52001 8.95401 7.03001L10.714 3.51001C11.674 1.60001 13.234 1.60001 14.184 3.51001Z" fill="#BEAF90"/>
</svg>
