<svg width="20" height="18" viewBox="0 0 20 18" fill="none" xmlns="http://www.w3.org/2000/svg">
<path fill-rule="evenodd" clip-rule="evenodd" d="M12.4404 7.56825C12.1006 7.90601 11.7363 8.18823 11.2902 8.37902C10.4364 8.7442 9.56935 8.73929 8.71566 8.38308C7.53034 7.8885 6.76757 6.71608 6.62872 5.45884C6.43299 3.68663 7.61993 1.91362 9.42578 1.58665C11.4114 1.22712 13.2101 2.79647 13.3706 4.76039C13.4157 5.31298 13.3499 5.87376 13.15 6.393C12.9583 6.89071 12.7536 7.15325 12.4404 7.56825ZM9.83029 0.842285H10.161C12.356 0.933175 14.0775 2.83085 14.0756 5.02099C14.0736 7.34856 12.3938 9.34922 9.99665 9.34922C7.60037 9.34922 5.91971 7.34758 5.91772 5.02099C5.91584 2.8342 7.63753 0.932795 9.83029 0.842285ZM2.85447 16.0008C2.55563 15.7314 2.50205 15.5184 2.53878 15.1273C2.72366 13.1582 4.85836 11.7013 6.54809 11.0621C8.87309 10.1826 11.5105 10.235 13.7964 11.1937C15.227 11.7936 17.0233 13.1043 17.3843 14.7147C17.5602 15.4992 17.3936 15.9378 16.6137 16.1997C14.8976 16.776 7.37515 16.6499 4.81495 16.4625C4.07579 16.4085 3.52325 16.3403 2.85447 16.0008V16.0008ZM13.523 17.2412C12.0921 17.2412 7.65047 17.3334 5.56981 17.1984C3.48915 17.0635 3.05036 16.8387 2.57047 16.5094C1.8732 16.031 1.81075 15.1836 1.98162 14.4203C2.46309 12.2695 4.78584 10.8035 6.75087 10.1994C9.77021 9.27121 13.6264 9.67938 16.1358 11.6845C17.2242 12.5542 18.3233 14.0374 18.0535 15.5105C17.8969 16.3651 17.2638 16.7033 16.4843 16.9028C15.5312 17.1467 14.5042 17.2333 13.523 17.2412V17.2412Z" fill="#BEAF90"/>
</svg>
