<svg width="72" height="55" viewBox="0 0 72 55" fill="none" xmlns="http://www.w3.org/2000/svg">
<path d="M28.9102 39.6805C28.3047 39.6805 27.7188 39.3461 27.3867 38.7399C26.8985 37.841 27.1914 36.6913 28.0313 36.1687L43.3828 26.6575L30.668 18.5678V28.8942C30.668 29.9394 29.8867 30.7756 28.9102 30.7756C27.9336 30.7756 27.1524 29.9394 27.1524 28.8942V15.265C27.1524 14.5961 27.4844 13.969 28.0508 13.6345C28.6172 13.3001 29.2813 13.3001 29.8281 13.6554L47.7774 25.0898C48.3047 25.4242 48.6367 26.0513 48.6367 26.7202C48.6367 27.3892 48.3047 27.9954 47.7578 28.3298L29.8086 39.4506C29.5156 39.5969 29.2227 39.6805 28.9102 39.6805Z" fill="#BEAF90"/>
<path d="M61.3125 54.4596H9.90625C8.92969 54.4596 8.14844 53.6234 8.14844 52.5782C8.14844 51.533 8.92969 50.6969 9.90625 50.6969H61.3125C64.8281 50.6969 67.6797 47.6031 67.6797 43.8196V11.586C67.6797 7.78156 64.8281 4.70871 61.3125 4.70871H10.7656C7.28906 4.70871 4.33984 7.86517 4.33984 11.586V42.9834C4.33984 44.0286 3.55859 44.8648 2.58203 44.8648C1.60547 44.8648 0.824219 44.0286 0.824219 42.9834V11.586C0.824219 5.71209 5.27734 0.946045 10.7656 0.946045H61.3125C66.7617 0.946045 71.1953 5.71209 71.1953 11.586V43.8196C71.1758 49.6935 66.7617 54.4596 61.3125 54.4596Z" fill="#BEAF90"/>
</svg>
