<svg width="10" height="7" viewBox="0 0 10 7" fill="none" xmlns="http://www.w3.org/2000/svg">
<path fill-rule="evenodd" clip-rule="evenodd" d="M4.766 1.07298C5.83176 1.01096 6.93103 1.40143 7.63284 1.85667C8.21995 2.23752 8.61827 2.66629 9.01473 3.19301C9.26253 3.52223 9.25814 3.48169 9.0657 3.75042C8.55276 4.46668 8.00369 4.97334 7.12586 5.43576C6.25138 5.8964 5.17801 6.05986 4.07636 5.84342C2.96458 5.62498 2.28758 5.15185 1.67729 4.60497C1.56861 4.50759 1.36511 4.21904 1.09552 4.29433C0.854061 4.36176 0.761427 4.63853 0.930299 4.857C1.1387 5.1266 1.58015 5.45636 1.9156 5.6824C3.56457 6.79359 5.66174 6.99693 7.59204 5.98883C8.61979 5.45209 9.3533 4.67615 9.90405 3.76271C10.0808 3.4696 9.98802 3.3767 9.83016 3.12994C9.59765 2.76648 9.30426 2.37295 9.03566 2.11897C8.44395 1.55947 7.86269 1.05354 6.83139 0.690646C5.82465 0.336396 4.73127 0.278007 3.65264 0.544124C2.66144 0.788669 1.8439 1.30337 1.28063 1.80909C0.971523 2.08662 0.688991 2.38788 0.417681 2.7585C0.295973 2.92476 0.171495 3.11093 0.0604514 3.30289C-0.0789435 3.54385 0.0334815 3.80061 0.287484 3.84998C0.581305 3.90709 0.688232 3.63112 0.796866 3.46119C1.1549 2.90111 1.562 2.45503 2.10131 2.05471C2.79949 1.53648 3.6255 1.13934 4.766 1.07298ZM4.97166 4.55007C4.40647 4.55007 3.91922 4.06376 3.92527 3.50681C3.93135 2.94566 4.39734 2.46364 4.97166 2.46364H5.036C5.58416 2.46364 6.07066 2.95041 6.07066 3.486V3.52251C6.07066 4.06333 5.58847 4.55007 5.03063 4.55007H4.97166ZM3.21059 3.47556V3.53294C3.21059 4.4696 4.02578 5.23976 4.98775 5.24573C5.94825 5.25169 6.78503 4.47589 6.78503 3.5538V3.47035C6.78503 2.54804 5.96891 1.7673 4.99311 1.7673C4.03164 1.7673 3.21059 2.5449 3.21059 3.47556Z" fill="#BEAF90"/>
</svg>
